<?xml version="1.0" encoding="UTF-8"?>
<svg version="1.1" xmlns="http://www.w3.org/2000/svg" width="500" height="168">
<path d="M0 0 C8.25 0 16.5 0 25 0 C24.37865201 6.83482785 23.72400652 13.50101895 22.625 20.25 C22.49633545 21.0541333 22.3676709 21.8582666 22.23510742 22.68676758 C21.01640882 30.16504472 19.56251903 37.5863459 18 45 C20.56682197 42.47560484 22.9746801 40.03255416 25.1875 37.1875 C25.785625 36.465625 26.38375 35.74375 27 35 C27.66 35 28.32 35 29 35 C29 34.34 29 33.68 29 33 C29.66 33 30.32 33 31 33 C31.42804932 32.12516968 31.42804932 32.12516968 31.86474609 31.23266602 C32.23937988 30.49588623 32.61401367 29.75910645 33 29 C33.3192041 28.37085693 33.6384082 27.74171387 33.96728516 27.09350586 C35.47001478 24.81304774 36.69412614 23.4983635 39 22 C44.14466699 21.12377749 49.18900282 21.33934934 54.375 21.5625 C55.79289199 21.59764765 57.21086753 21.62958066 58.62890625 21.65820312 C62.08768539 21.73498745 65.54330845 21.85557441 69 22 C68.29593359 26.30925768 67.51904262 27.88726823 64.0625 30.625 C61.44850856 32.72188606 59.88922484 34.16616274 58 37 C57.34 37 56.68 37 56 37 C56 37.66 56 38.32 56 39 C55.34 39 54.68 39 54 39 C54 39.66 54 40.32 54 41 C53.34 41 52.68 41 52 41 C52 41.66 52 42.32 52 43 C51.34 43 50.68 43 50 43 C50 43.66 50 44.32 50 45 C49.34 45 48.68 45 48 45 C47.76539063 45.56203125 47.53078125 46.1240625 47.2890625 46.703125 C45.69337 49.54635891 43.71075457 51.48098127 41.375 53.75 C40.55773437 54.54921875 39.74046875 55.3484375 38.8984375 56.171875 C38.27195312 56.77515625 37.64546875 57.3784375 37 58 C40.75229187 64.56096005 44.5422739 71.00313599 48.93359375 77.16015625 C50 79 50 79 50 82 C50.66 82 51.32 82 52 82 C53.54296875 84.1171875 53.54296875 84.1171875 55.1875 86.875 C55.73792969 87.77992187 56.28835938 88.68484375 56.85546875 89.6171875 C57.23316406 90.40351562 57.61085938 91.18984375 58 92 C57.67 92.66 57.34 93.32 57 94 C47.1 94 37.2 94 27 94 C27 93.34 27 92.68 27 92 C26.34 92 25.68 92 25 92 C21.37 84.41 17.74 76.82 14 69 C12.73687784 74.05248862 11.66211905 78.65939895 10.9375 83.75 C10.43486637 87.25597339 9.86064997 90.55740011 9 94 C0.75 94 -7.5 94 -16 94 C-16.88758823 89.56205887 -17.04950611 88.14599587 -16.0625 84.0625 C-15.15899569 80.28692902 -14.90385882 76.88523471 -15 73 C-15.45890625 73.74765625 -15.9178125 74.4953125 -16.390625 75.265625 C-17.00421875 76.25046875 -17.6178125 77.2353125 -18.25 78.25 C-18.85328125 79.22453125 -19.4565625 80.1990625 -20.078125 81.203125 C-21.8727114 83.81475887 -23.6098552 85.92590741 -26 88 C-26.66 88 -27.32 88 -28 88 C-28 88.66 -28 89.32 -28 90 C-38.67630701 96.52440984 -48.37330286 99.31646058 -61 98 C-66.12983693 96.68036804 -70.59165553 94.93889631 -75 92 C-75 91.34 -75 90.68 -75 90 C-75.66 90 -76.32 90 -77 90 C-77 89.34 -77 88.68 -77 88 C-77.66 88 -78.32 88 -79 88 C-84.82354901 78.28692194 -86.27123296 68.88450269 -83.84375 57.78515625 C-80.45153508 46.58770608 -73.80476387 36.18128472 -63.625 30.0625 C-52.44745121 24.61851251 -39.89124534 22.67961296 -27.9375 26.75 C-21.21833047 29.57342848 -16.43541173 33.5303925 -13 40 C-12.08233415 42.97058844 -11.46669736 45.92815618 -11 49 C-8.59583042 45.39374563 -8.20785802 42.11928959 -7.59765625 37.9296875 C-7.4744249 37.13402374 -7.35119354 36.33835999 -7.22422791 35.51858521 C-6.69823643 32.12148507 -6.18941775 28.72187429 -5.67993164 25.32226562 C-5.30476423 22.83621074 -4.92016927 20.35173368 -4.53515625 17.8671875 C-4.42567154 17.1137204 -4.31618683 16.3602533 -4.2033844 15.58395386 C-3.33435693 9.98868063 -1.84615305 5.53845914 0 0 Z M-52 49 C-52 49.66 -52 50.32 -52 51 C-52.66 51 -53.32 51 -54 51 C-56.90742744 58.17771148 -59.21422962 64.032697 -57.3125 71.8125 C-56.12321261 74.13861945 -56.12321261 74.13861945 -53.8125 75.5 C-49.74376122 76.22333134 -47.53951478 75.00349893 -44 73 C-43.34 71.68 -42.68 70.36 -42 69 C-32.76 69 -23.52 69 -14 69 C-13.505 70.485 -13.505 70.485 -13 72 C-12.65855641 70.31412229 -12.32728197 68.62618407 -12 66.9375 C-11.814375 65.99777344 -11.62875 65.05804688 -11.4375 64.08984375 C-10.8364397 60.36496594 -10.8364397 60.36496594 -11 54 C-19.91 53.67 -28.82 53.34 -38 53 C-38.66 51.68 -39.32 50.36 -40 49 C-44.41280092 46.05813272 -47.48990054 46.32734847 -52 49 Z " fill="#F5F4F4" transform="translate(325,29)"/>
<path d="M0 0 C0 0.66 0 1.32 0 2 C0.70125 2.165 1.4025 2.33 2.125 2.5 C7.45645119 5.28162671 11.28064122 11.19993409 13.40234375 16.77734375 C17.53577795 32.14939643 15.9646115 46.9165055 8.4296875 60.91796875 C4.9457129 66.70636601 1.38889733 70.93083263 -4 75 C-3.4294891 78.99357628 -2.07130449 81.57784475 0 85 C0 85.99 0 86.98 0 88 C0.66 88 1.32 88 2 88 C2.84114171 89.43294498 3.67265687 90.87154405 4.5 92.3125 C5.19609375 93.51326172 5.19609375 93.51326172 5.90625 94.73828125 C7 97 7 97 7 100 C-2.9 100 -12.8 100 -23 100 C-29 88 -29 88 -29 86 C-30.45019531 86.05220703 -30.45019531 86.05220703 -31.9296875 86.10546875 C-43.41854127 86.34434591 -51.87217764 84.43901571 -62 79 C-62 78.34 -62 77.68 -62 77 C-62.5775 76.773125 -63.155 76.54625 -63.75 76.3125 C-68.97929333 73.26207889 -71.79330428 67.47011897 -74 62 C-77.50610838 47.68540578 -76.27887614 32.945343 -69 20 C-65.77897806 14.92764302 -62.50008028 10.02978501 -58 6 C-57.34 6 -56.68 6 -56 6 C-56 5.34 -56 4.68 -56 4 C-48.53292562 -0.54198028 -41.56400368 -3.29456087 -33 -5 C-32.154375 -5.18433594 -31.30875 -5.36867188 -30.4375 -5.55859375 C-19.68634272 -7.50551807 -9.70871038 -4.53073151 0 0 Z M-41 23 C-41 23.66 -41 24.32 -41 25 C-41.66 25 -42.32 25 -43 25 C-48.62964767 32.56483906 -50.43662803 39.91692303 -49.859375 49.28125 C-49.03593844 53.93545666 -47.07102404 57.1161738 -43.37890625 59.921875 C-37.27517288 62.68809899 -30.2537964 62.14915825 -24.046875 59.95703125 C-17.04884002 56.21706345 -13.83129236 51.23226388 -11.26171875 43.890625 C-9.15573127 36.49817914 -9.40365252 30.80737202 -13 24 C-15.38912872 20.3167599 -17.99860778 19.52726212 -22.125 18.5625 C-29.19143827 17.4731697 -35.08985276 19.05990184 -41 23 Z " fill="#F5F4F4" transform="translate(125,23)"/>
<path d="M0 0 C8.58 0 17.16 0 26 0 C25.36995568 10.62180598 23.68126299 20.74146924 21.55273438 31.15429688 C21.21145508 32.93223633 21.21145508 32.93223633 20.86328125 34.74609375 C20.64969971 35.80497803 20.43611816 36.8638623 20.21606445 37.95483398 C19.96215499 41.53337945 20.46305023 43.76571547 22 47 C26.60459449 48.87305539 28.97013631 49.16610705 33.875 48.375 C37.40040892 46.82382007 37.65468021 46.41320227 39 43 C39.44605486 41.33194246 39.83635836 39.64842371 40.18359375 37.95703125 C40.38758789 36.97299316 40.59158203 35.98895508 40.80175781 34.97509766 C41.1164502 33.40961182 41.1164502 33.40961182 41.4375 31.8125 C41.65631836 30.74563965 41.87513672 29.6787793 42.10058594 28.57958984 C43.55697856 21.40841584 44.91048841 14.22366894 46.09936523 7.00317383 C46.90120705 2.1975859 46.90120705 2.1975859 48 0 C65.82 0 83.64 0 102 0 C101.39841424 6.01585763 100.79740738 11.67507732 99.73046875 17.5703125 C99.54889221 18.58482986 99.54889221 18.58482986 99.36364746 19.61984253 C98.97493987 21.78884454 98.58124347 23.95690712 98.1875 26.125 C97.64381387 29.14807707 97.10288709 32.17164415 96.5625 35.1953125 C96.42857346 35.94306946 96.29464691 36.69082642 96.15666199 37.46124268 C94.75793739 45.2993231 93.46144998 53.15388846 92.20581055 61.01611328 C92.05926025 61.9182959 91.91270996 62.82047852 91.76171875 63.75 C91.63756592 64.52859375 91.51341309 65.3071875 91.38549805 66.109375 C91 68 91 68 90 70 C81.42 70 72.84 70 64 70 C64.58056434 64.77492095 65.15309669 59.70322575 66.015625 54.54296875 C66.21260986 53.36041504 66.40959473 52.17786133 66.61254883 50.95947266 C66.92808716 49.09234619 66.92808716 49.09234619 67.25 47.1875 C67.46744873 45.89118652 67.68489746 44.59487305 67.90893555 43.25927734 C70.17092674 29.82152392 72.56939201 16.40820281 75 3 C73.70409601 6.04844406 72.72129138 8.83804791 72.25390625 12.1171875 C72.14062988 12.88023193 72.02735352 13.64327637 71.91064453 14.42944336 C71.79575684 15.23647705 71.68086914 16.04351074 71.5625 16.875 C70.70446576 22.59288388 69.79750953 28.27368276 68.625 33.9375 C66.14910276 45.90654332 64.12484678 57.96480062 62 70 C53.42 70 44.84 70 36 70 C36.33 68.02 36.66 66.04 37 64 C36.01 64.66 35.02 65.32 34 66 C33.01 66 32.02 66 31 66 C31 66.66 31 67.32 31 68 C23.24873239 72.47188516 12.50267444 71.83841609 4 70 C4 69.34 4 68.68 4 68 C3.4225 67.9175 2.845 67.835 2.25 67.75 C-2.08727649 66.30424117 -3.69409346 63.58996262 -5.75 59.625 C-9.72202561 47.73074748 -6.13541317 33.97037822 -4 22 C-3.72183805 20.39467281 -3.44448171 18.7892058 -3.16796875 17.18359375 C-2.17264011 11.44251883 -1.14282395 5.71411976 0 0 Z " fill="#F6F6F5" transform="translate(143,53)"/>
<path d="M0 0 C11.338176 0.73149523 19.05020159 3.58700155 27.125 11.4375 C33.33594397 21.41937423 34.18037769 31.07108912 31.6875 42.375 C29.2421084 51.16703584 25.15629276 58.54601499 17.875 64.25 C17.215 64.25 16.555 64.25 15.875 64.25 C15.875 64.91 15.875 65.57 15.875 66.25 C8.34742398 70.0019893 1.29713882 73.34103392 -7.125 74.25 C-7.83785156 74.3325 -8.55070312 74.415 -9.28515625 74.5 C-18.26573154 75.02155791 -27.33428541 72.25200662 -34.1875 66.4375 C-35.53982394 65.0802134 -36.85770357 63.6869992 -38.125 62.25 C-38.58777344 61.72792969 -39.05054688 61.20585938 -39.52734375 60.66796875 C-43.49875935 55.08537387 -43.04378869 47.82811598 -43.125 41.25 C-43.14949219 40.37988281 -43.17398437 39.50976562 -43.19921875 38.61328125 C-42.92761124 29.96472618 -38.41463236 20.77676844 -32.578125 14.51953125 C-31.76859375 13.77058594 -30.9590625 13.02164063 -30.125 12.25 C-29.609375 11.71375 -29.09375 11.1775 -28.5625 10.625 C-20.85408762 3.25173598 -10.32472854 0.82597828 0 0 Z M-13.875 29.375 C-16.21262903 34.75154678 -18.18159619 40.52724306 -16.0625 46.25 C-14.36603584 49.26668706 -14.36603584 49.26668706 -12 50.8125 C-7.7933824 51.45263746 -4.17646658 50.3974742 -0.125 49.25 C-0.125 48.59 -0.125 47.93 -0.125 47.25 C0.535 47.25 1.195 47.25 1.875 47.25 C5.01551763 40.40815802 7.62694994 34.37108445 5.0625 26.875 C3.79954922 24.95088836 3.79954922 24.95088836 0.875 23.25 C-5.72991471 22.50227381 -9.65172169 24.24673348 -13.875 29.375 Z " fill="#F5F4F3" transform="translate(417.125,50.75)"/>
<path d="M0 0 C30.01393778 -0.02279875 60.02787527 -0.04050252 90.0418198 -0.05106533 C93.58297428 -0.05231608 97.12412875 -0.0536104 100.6652832 -0.05493164 C101.37028136 -0.05519395 102.07527951 -0.05545626 102.80164125 -0.05572652 C114.22596946 -0.06008117 125.65029266 -0.0679676 137.0746179 -0.0771528 C148.79173065 -0.08649502 160.50884077 -0.09205682 172.2259571 -0.09408849 C178.80950042 -0.09539503 185.39303235 -0.0984773 191.97657204 -0.10573006 C198.16769772 -0.11249554 204.35880727 -0.11461587 210.54993629 -0.11310768 C212.82722054 -0.11338377 215.10450529 -0.11538577 217.38178635 -0.11920547 C220.48113226 -0.12415092 223.58041657 -0.12299508 226.67976379 -0.12025452 C228.0440517 -0.12462378 228.0440517 -0.12462378 229.43590099 -0.12908131 C230.67798274 -0.12609474 230.67798274 -0.12609474 231.94515705 -0.12304783 C232.66092987 -0.12342755 233.3767027 -0.12380727 234.1141656 -0.1241985 C236 0 236 0 239 1 C239 1.66 239 2.32 239 3 C228.95417015 4.69348687 218.99852714 5.64788359 208.8359375 6.24609375 C208.12606689 6.28855225 207.41619629 6.33101074 206.68481445 6.37475586 C204.66643584 6.49386643 202.64767718 6.60648469 200.62890625 6.71875 C197.12409584 6.93539133 197.12409584 6.93539133 194.1875 7.4765625 C189.62458239 8.22586515 185.04626597 8.52699342 180.4375 8.875 C178.18487465 9.05050954 175.93227187 9.22630898 173.6796875 9.40234375 C172.45217773 9.49757324 171.22466797 9.59280273 169.95996094 9.69091797 C163.42038625 10.20134347 156.88196516 10.72582116 150.34378052 11.25372314 C148.18883314 11.42732277 146.03375728 11.59924278 143.87866211 11.77099609 C123.8228293 13.38089744 103.78498509 15.21483952 83.74457836 17.00481701 C77.77791437 17.53745874 71.81092854 18.06640773 65.84372425 18.59296131 C62.06808806 18.9263021 58.29265861 19.26173764 54.51757812 19.60131836 C50.75051064 19.94008398 46.9830137 20.27364306 43.21517563 20.60372353 C41.8126394 20.72747188 40.41025853 20.85299735 39.00806046 20.98052025 C15.43148351 23.12119084 15.43148351 23.12119084 11.296875 19.8828125 C10.78640625 18.97273438 10.2759375 18.06265625 9.75 17.125 C9.20859375 16.22007812 8.6671875 15.31515625 8.109375 14.3828125 C7 12 7 12 7 10 C6.34 10 5.68 10 5 10 C3.7109375 8.3203125 3.7109375 8.3203125 2.375 6.125 C1.92898437 5.40570313 1.48296875 4.68640625 1.0234375 3.9453125 C0 2 0 2 0 0 Z " fill="#F0EFEF" transform="translate(142,132)"/>
<path d="M0 0 C1.62890625 1.0234375 1.62890625 1.0234375 3.81640625 4.3359375 C4.9464198 9.69121909 5.30135187 14.83166481 2.43359375 19.66796875 C-2.71586181 24.78510555 -9.06244773 26.2757588 -16.18359375 26.3359375 C-20.24419235 25.17576647 -21.75755035 23.77263198 -24.68359375 20.7734375 C-26.78743037 15.95214524 -25.9735542 12.20013495 -24.18359375 7.3359375 C-22.71875 5.03125 -22.71875 5.03125 -21.18359375 3.3359375 C-20.52359375 3.3359375 -19.86359375 3.3359375 -19.18359375 3.3359375 C-19.18359375 2.6759375 -19.18359375 2.0159375 -19.18359375 1.3359375 C-13.64283908 -2.02905741 -6.09083598 -1.85231148 0 0 Z " fill="#F3F2F2" transform="translate(246.18359375,21.6640625)"/>
<path d="M0 0 C8.16236415 -0.02316034 16.32471459 -0.04093395 24.48710346 -0.05181217 C28.27714002 -0.0570329 32.06715411 -0.0641159 35.85717773 -0.07543945 C39.51408802 -0.08629704 43.17097668 -0.09228295 46.82790184 -0.09487724 C48.22376025 -0.0967263 49.61961747 -0.10033699 51.01546669 -0.10573006 C52.96903964 -0.11297844 54.92263431 -0.11340838 56.8762207 -0.11352539 C58.5450103 -0.11685631 58.5450103 -0.11685631 60.24751282 -0.12025452 C63 0 63 0 66 1 C66 1.66 66 2.32 66 3 C54.01057876 5.02112993 42.16715378 6.24718823 30 6 C30.33 5.01 30.66 4.02 31 3 C29.9644397 2.96241577 29.9644397 2.96241577 28.90795898 2.92407227 C25.75098591 2.8073434 22.59425543 2.68496822 19.4375 2.5625 C18.35146484 2.52318359 17.26542969 2.48386719 16.14648438 2.44335938 C10.69589254 2.22798645 5.37924559 1.91840778 0 1 C0 0.67 0 0.34 0 0 Z " fill="#AFACAB" transform="translate(315,132)"/>
<path d="M0 0 C2.7839183 1.39195915 2.97898997 3.15575779 4 6 C3 7 3 7 0.13256836 7.11352539 C-1.11903076 7.10828857 -2.37062988 7.10305176 -3.66015625 7.09765625 C-4.65685585 7.09553383 -4.65685585 7.09553383 -5.6736908 7.09336853 C-7.80333899 7.08775518 -9.93288339 7.07520054 -12.0625 7.0625 C-13.50325369 7.05748671 -14.94400903 7.05292351 -16.38476562 7.04882812 C-19.92321102 7.03778145 -23.46159539 7.02050792 -27 7 C-27 6.34 -27 5.68 -27 5 C-27.66 5 -28.32 5 -29 5 C-29.33 3.68 -29.66 2.36 -30 1 C-29.34 1 -28.68 1 -28 1 C-28 1.99 -28 2.98 -28 4 C-18.43 4.33 -8.86 4.66 1 5 C0.67 3.35 0.34 1.7 0 0 Z " fill="#AAA6A5" transform="translate(379,116)"/>
<path d="M0 0 C0.33 0 0.66 0 1 0 C0.67 4.29 0.34 8.58 0 13 C7.59 13 15.18 13 23 13 C23.33 11.35 23.66 9.7 24 8 C25 11 25 11 24 15 C15.75 15 7.5 15 -1 15 C-1.89236504 10.5381748 -2.01018165 8.86844847 -1.0625 4.6875 C-0.86785156 3.80449219 -0.67320312 2.92148438 -0.47265625 2.01171875 C-0.31667969 1.34785156 -0.16070312 0.68398437 0 0 Z " fill="#8F8E8E" transform="translate(310,108)"/>
<path d="M0 0 C1.5 1.3125 1.5 1.3125 3 3 C3 3.99 3 4.98 3 6 C-6.9 6 -16.8 6 -27 6 C-27.33 5.01 -27.66 4.02 -28 3 C-18.43 3.33 -8.86 3.66 1 4 C0.67 2.68 0.34 1.36 0 0 Z " fill="#979494" transform="translate(129,117)"/>
<path d="M0 0 C9.57 0 19.14 0 29 0 C28.67 3.3 28.34 6.6 28 10 C27.67 10 27.34 10 27 10 C26.875 3.25 26.875 3.25 28 1 C20.08 1 12.16 1 4 1 C4 2.65 4 4.3 4 6 C4.66 6.33 5.32 6.66 6 7 C4.02 7.99 4.02 7.99 2 9 C2 7.02 2 5.04 2 3 C1.34 4.65 0.68 6.3 0 8 C-0.33 8 -0.66 8 -1 8 C-0.67 5.36 -0.34 2.72 0 0 Z " fill="#CAC8C7" transform="translate(216,53)"/>
<path d="M0 0 C0.33 0 0.66 0 1 0 C1.27099712 6.23293368 0.29643142 10.51784288 -1 17 C-9.58 17 -18.16 17 -27 17 C-26.67 15.68 -26.34 14.36 -26 13 C-26 13.99 -26 14.98 -26 16 C-18.08 16 -10.16 16 -2 16 C-2 12.37 -2 8.74 -2 5 C-1.34 3.35 -0.68 1.7 0 0 Z " fill="#C0BCBC" transform="translate(206,106)"/>
<path d="M0 0 C1.07310858 3.27185553 0.89263102 5.42947592 0.0625 8.75 C-0.13214844 9.54921875 -0.32679688 10.3484375 -0.52734375 11.171875 C-0.68332031 11.77515625 -0.83929688 12.3784375 -1 13 C-1.33 13 -1.66 13 -2 13 C-2 11.35 -2 9.7 -2 8 C-10.91 8 -19.82 8 -29 8 C-29 7.67 -29 7.34 -29 7 C-20.42 7 -11.84 7 -3 7 C-2.67 5.68 -2.34 4.36 -2 3 C-1.34 2.01 -0.68 1.02 0 0 Z " fill="#D4CFCF" transform="translate(316,75)"/>
<path d="M0 0 C8.25 0 16.5 0 25 0 C24.67 0.99 24.34 1.98 24 3 C20.37435813 2.89045592 16.74978569 2.7597504 13.125 2.625 C12.09246094 2.5940625 11.05992187 2.563125 9.99609375 2.53125 C9.00996094 2.49257813 8.02382813 2.45390625 7.0078125 2.4140625 C6.09660645 2.3826416 5.18540039 2.3512207 4.24658203 2.31884766 C2 2 2 2 0 0 Z " fill="#A8A5A6" transform="translate(325,29)"/>
<path d="M0 0 C0.33 0 0.66 0 1 0 C1.02689449 2.95839355 1.04678741 5.91654427 1.0625 8.875 C1.07087891 9.71675781 1.07925781 10.55851562 1.08789062 11.42578125 C1.09111328 12.23144531 1.09433594 13.03710938 1.09765625 13.8671875 C1.10289307 14.61081543 1.10812988 15.35444336 1.11352539 16.12060547 C1 18 1 18 0 20 C-0.66 20 -1.32 20 -2 20 C-2.33 20.66 -2.66 21.32 -3 22 C-2.45298368 14.55769906 -1.45801591 7.31839056 0 0 Z " fill="#ABA7A6" transform="translate(213,84)"/>
<path d="M0 0 C0.66 0.33 1.32 0.66 2 1 C1.24203125 1.61488281 1.24203125 1.61488281 0.46875 2.2421875 C-0.50578125 3.05042969 -0.50578125 3.05042969 -1.5 3.875 C-2.47453125 4.67550781 -2.47453125 4.67550781 -3.46875 5.4921875 C-4.22671875 6.23855469 -4.22671875 6.23855469 -5 7 C-5 7.66 -5 8.32 -5 9 C-5.66 9 -6.32 9 -7 9 C-7.66 10.65 -8.32 12.3 -9 14 C-9.75 12.375 -9.75 12.375 -10 10 C-8.1875 6.75 -8.1875 6.75 -6 4 C-5.34 4 -4.68 4 -4 4 C-4 3.34 -4 2.68 -4 2 C-2.125 0.9375 -2.125 0.9375 0 0 Z " fill="#AEACAC" transform="translate(231,21)"/>
<path d="M0 0 C0.66 0.33 1.32 0.66 2 1 C1.67 1.66 1.34 2.32 1 3 C0.34 3 -0.32 3 -1 3 C-1.061875 3.556875 -1.12375 4.11375 -1.1875 4.6875 C-2.33373872 7.94987173 -4.49390197 9.68667874 -7 12 C-7.66 11.67 -8.32 11.34 -9 11 C-7.88266271 9.49428343 -6.75589965 7.99555708 -5.625 6.5 C-4.99851562 5.6646875 -4.37203125 4.829375 -3.7265625 3.96875 C-3.15679687 3.3190625 -2.58703125 2.669375 -2 2 C-1.34 2 -0.68 2 0 2 C0 1.34 0 0.68 0 0 Z " fill="#B6B4B4" transform="translate(354,62)"/>
<path d="M0 0 C1.32 0 2.64 0 4 0 C4 1.98 4 3.96 4 6 C4.66 6.33 5.32 6.66 6 7 C4.02 7.99 4.02 7.99 2 9 C2 7.02 2 5.04 2 3 C1.34 4.65 0.68 6.3 0 8 C-0.33 8 -0.66 8 -1 8 C-0.67 5.36 -0.34 2.72 0 0 Z " fill="#B9AAAB" transform="translate(216,53)"/>
<path d="M0 0 C0.33 0 0.66 0 1 0 C0.67 3.3 0.34 6.6 0 10 C0.66 10 1.32 10 2 10 C1.67 10.99 1.34 11.98 1 13 C0.01 13.33 -0.98 13.66 -2 14 C-2.21192221 8.80790596 -1.5912689 4.873261 0 0 Z " fill="#A7A09F" transform="translate(343,64)"/>
<path d="M0 0 C1.07310858 3.27185553 0.89263102 5.42947592 0.0625 8.75 C-0.22947266 9.94882813 -0.22947266 9.94882813 -0.52734375 11.171875 C-0.68332031 11.77515625 -0.83929688 12.3784375 -1 13 C-1.33 13 -1.66 13 -2 13 C-2.2493357 11.39884424 -2.47378648 9.79379841 -2.6875 8.1875 C-2.81511719 7.29417969 -2.94273437 6.40085937 -3.07421875 5.48046875 C-3 3 -3 3 -1.51953125 1.17578125 C-1.01808594 0.78777344 -0.51664062 0.39976563 0 0 Z " fill="#A8A2A1" transform="translate(316,75)"/>
<path d="M0 0 C0.33 0 0.66 0 1 0 C2.11477625 6.67522647 2.26584133 10.99085195 -1 17 C-1.33 17 -1.66 17 -2 17 C-1.4618629 11.30948637 -0.8599867 5.65134116 0 0 Z " fill="#9E9C98" transform="translate(322,38)"/>
<path d="M0 0 C0.66 0 1.32 0 2 0 C2.26785714 8.03571429 2.26785714 8.03571429 0 12 C-0.19401633 10.18818595 -0.38004375 8.37551468 -0.5625 6.5625 C-0.66691406 5.55316406 -0.77132812 4.54382813 -0.87890625 3.50390625 C-0.91886719 2.67761719 -0.95882812 1.85132812 -1 1 C-0.67 0.67 -0.34 0.34 0 0 Z " fill="#B5B1AD" transform="translate(209,83)"/>
<path d="M0 0 C2.64 0.33 5.28 0.66 8 1 C8 1.99 8 2.98 8 4 C6.68 4 5.36 4 4 4 C4 3.34 4 2.68 4 2 C2.68 1.67 1.36 1.34 0 1 C0 0.67 0 0.34 0 0 Z " fill="#B6B2B2" transform="translate(143,119)"/>
<path d="M0 0 C0.98120464 3.05263664 0.98120464 4.94736336 0 8 C-0.66 8 -1.32 8 -2 8 C-2.33 8.66 -2.66 9.32 -3 10 C-2.39009109 6.44219804 -1.4216319 3.3171411 0 0 Z " fill="#B6B3B2" transform="translate(378,75)"/>
</svg>
