<?xml version="1.0" encoding="UTF-8"?>
<svg version="1.1" xmlns="http://www.w3.org/2000/svg" width="500" height="175">
<path d="M0 0 C6.56703622 5.94284268 11.44031037 14.02592804 12.16113281 23.0078125 C12.49071073 39.624671 10.400224 51.899664 1 66 C0.34 66 -0.32 66 -1 66 C-1.226875 66.556875 -1.45375 67.11375 -1.6875 67.6875 C-3.35636058 70.6278734 -5.58788665 72.6502353 -8 75 C-7.38511719 76.02480469 -6.77023438 77.04960938 -6.13671875 78.10546875 C-1.26171875 86.23046875 -1.26171875 86.23046875 -0.09130859 88.19287109 C0.84541996 89.74402652 1.81599258 91.27465508 2.79296875 92.80078125 C4 95 4 95 4 98 C-5.9 98 -15.8 98 -26 98 C-32 86 -32 86 -32 84 C-32.93199219 84.04640625 -33.86398438 84.0928125 -34.82421875 84.140625 C-46.2921226 84.46529771 -57.16342142 83.3283537 -66.29296875 75.62109375 C-67.13794922 74.81865234 -67.13794922 74.81865234 -68 74 C-68.55300781 73.47535156 -69.10601562 72.95070313 -69.67578125 72.41015625 C-77.46352924 64.19727065 -79.1415166 54.01733772 -79.07763672 43.05810547 C-78.53846715 28.76502549 -73.18492043 15.1048958 -62.69921875 5.2578125 C-61 4 -61 4 -59 4 C-59 3.34 -59 2.68 -59 2 C-40.56183575 -8.57790375 -18.61689893 -13.54916085 0 0 Z M-44.6875 22.0625 C-50.37475948 29.28685663 -53.45908857 36.70693443 -53 46 C-52.10231836 51.02701718 -50.10052837 55.00433866 -45.85546875 58.0859375 C-41.1650278 60.39659683 -36.43138118 60.52178672 -31.37890625 59.4375 C-24.12634904 56.96478643 -19.43933435 52.67829482 -15.90625 45.90234375 C-13.01538142 38.52795213 -12.43799435 29.72244818 -15.625 22.375 C-17.16268269 19.80151717 -17.94505499 19.03139715 -20.625 17.5 C-29.5976516 16.17071828 -37.29320144 16.38780575 -44.6875 22.0625 Z " fill="#4C1665" transform="translate(128,23)"/>
<path d="M0 0 C8.58 0 17.16 0 26 0 C25.42402272 6.91172733 24.90327001 13.04733426 23.609375 19.72265625 C22.78863255 24.13677748 22.07928377 28.56600568 21.375 33 C21.23980957 33.83797119 21.10461914 34.67594238 20.96533203 35.53930664 C20.77753174 36.72641235 20.77753174 36.72641235 20.5859375 37.9375 C20.41650635 39.00291016 20.41650635 39.00291016 20.24365234 40.08984375 C19.93673449 42.17504245 19.93673449 42.17504245 20 45 C20.495 44.01 20.495 44.01 21 43 C21.66 43 22.32 43 23 43 C23.309375 42.38125 23.61875 41.7625 23.9375 41.125 C24.625 39.75 25.3125 38.375 26 37 C26.66 37 27.32 37 28 37 C28.2475 36.443125 28.495 35.88625 28.75 35.3125 C30.22924818 32.57589087 31.93467439 30.32349131 34 28 C34.66 28 35.32 28 36 28 C36 27.34 36 26.68 36 26 C36.66 26 37.32 26 38 26 C38.66 24.68 39.32 23.36 40 22 C49.9 22 59.8 22 70 22 C68.88205295 26.4717882 67.76674972 27.53399314 64.5 30.625 C61.33306837 33.50277024 61.33306837 33.50277024 59 37 C58.34 37 57.68 37 57 37 C57 37.66 57 38.32 57 39 C56.34 39 55.68 39 55 39 C55 39.66 55 40.32 55 41 C54.34 41 53.68 41 53 41 C53 41.66 53 42.32 53 43 C52.34 43 51.68 43 51 43 C50.77699219 43.556875 50.55398438 44.11375 50.32421875 44.6875 C48.03543481 48.68443243 44.38860241 51.47143611 41.01953125 54.5625 C38.78194413 56.72816041 38.78194413 56.72816041 39.0234375 58.9921875 C42.21044402 65.5446729 46.06688429 71.67118264 50.16796875 77.68359375 C50.71670654 78.48974121 51.26544434 79.29588867 51.83081055 80.12646484 C52.93574811 81.73902401 54.05039643 83.34497584 55.17504883 84.94384766 C55.68447021 85.68554199 56.1938916 86.42723633 56.71875 87.19140625 C57.18216797 87.85342041 57.64558594 88.51543457 58.12304688 89.19750977 C59 91 59 91 58 94 C53.78257407 94.12365029 49.56610889 94.21435665 45.34741211 94.2746582 C43.91265486 94.29979524 42.47802559 94.33391108 41.04370117 94.37719727 C38.9806363 94.43789665 36.91926385 94.46621353 34.85546875 94.48828125 C32.99378052 94.52755737 32.99378052 94.52755737 31.09448242 94.56762695 C28 94 28 94 26.2265625 91.7734375 C25.82179688 90.85820313 25.41703125 89.94296875 25 89 C24.58468018 88.20682373 24.16936035 87.41364746 23.74145508 86.59643555 C23.13660278 85.37887573 23.13660278 85.37887573 22.51953125 84.13671875 C22.12096924 83.33709717 21.72240723 82.53747559 21.31176758 81.71362305 C20.81700928 80.71500244 20.32225098 79.71638184 19.8125 78.6875 C18.224375 75.490625 16.63625 72.29375 15 69 C13.35 77.25 11.7 85.5 10 94 C1.42 94 -7.16 94 -16 94 C-14.87587649 80.5105179 -14.87587649 80.5105179 -13.9140625 75.7734375 C-13.70724854 74.7326001 -13.50043457 73.6917627 -13.28735352 72.61938477 C-13.06877686 71.54873779 -12.8502002 70.47809082 -12.625 69.375 C-12.16634196 67.05891531 -11.70931164 64.74250769 -11.25390625 62.42578125 C-11.03492676 61.31412598 -10.81594727 60.2024707 -10.59033203 59.05712891 C-9.8522135 55.23466395 -9.1849583 51.40527581 -8.5625 47.5625 C-7.17608716 39.03145359 -5.74160441 30.50911332 -4.28829956 21.98922729 C-4.01383402 20.37767701 -3.74032783 18.76596302 -3.46780396 17.15408325 C-3.08234318 14.87446924 -2.69386663 12.595388 -2.3046875 10.31640625 C-2.12985588 9.27697876 -2.12985588 9.27697876 -1.95149231 8.21655273 C-1.46397984 5.37888843 -0.91248705 2.73746115 0 0 Z " fill="#4B1664" transform="translate(324,27)"/>
<path d="M0 0 C1.5631897 0.00785522 1.5631897 0.00785522 3.15795898 0.01586914 C4.28266602 0.0190918 5.40737305 0.02231445 6.56616211 0.02563477 C7.75016602 0.03401367 8.93416992 0.04239258 10.15405273 0.05102539 C11.34192383 0.05553711 12.52979492 0.06004883 13.75366211 0.06469727 C16.69967499 0.07652864 19.64558954 0.09301252 22.59155273 0.11352539 C23.8467691 3.87917448 23.19263991 5.80858513 22.34155273 9.67602539 C22.05680343 11.02712668 21.77435008 12.37871339 21.49389648 13.73071289 C21.34549316 14.44324219 21.19708984 15.15577148 21.04418945 15.88989258 C18.85670365 26.63618205 17.00837274 37.09790326 17.59155273 48.11352539 C22.79405128 49.57672811 28.40775996 49.84145631 33.59155273 48.11352539 C33.59155273 47.45352539 33.59155273 46.79352539 33.59155273 46.11352539 C34.25155273 46.11352539 34.91155273 46.11352539 35.59155273 46.11352539 C36.63022005 40.42507278 37.66060609 34.73519956 38.67886353 29.0430603 C39.2010641 26.12652028 39.72589367 23.21045591 40.25097656 20.29443359 C40.52255463 18.78290675 40.79304026 17.27118326 41.0625 15.75927734 C41.4560314 13.55261449 41.85347418 11.34668735 42.25170898 9.14086914 C42.37151627 8.46386459 42.49132355 7.78686005 42.61476135 7.08934021 C43.47768245 2.34126596 43.47768245 2.34126596 44.59155273 0.11352539 C48.7373716 0.08465788 52.8831649 0.06677212 57.02905273 0.05102539 C58.21305664 0.04264648 59.39706055 0.03426758 60.61694336 0.02563477 C61.74165039 0.02241211 62.86635742 0.01918945 64.02514648 0.01586914 C65.06727295 0.01063232 66.10939941 0.00539551 67.18310547 0 C69.59155273 0.11352539 69.59155273 0.11352539 70.59155273 1.11352539 C70.32098322 3.80118253 69.98713397 6.44363384 69.59155273 9.11352539 C69.43348145 10.20842285 69.43348145 10.20842285 69.2722168 11.32543945 C68.11571499 19.17386568 66.90707003 26.99842718 65.15405273 34.73852539 C63.37965205 42.62475064 62.1838787 50.5987568 60.94921875 58.5847168 C60.78736084 59.62805176 60.62550293 60.67138672 60.45874023 61.74633789 C60.31549316 62.68364746 60.17224609 63.62095703 60.0246582 64.58666992 C59.64505702 66.80136679 59.17252911 68.94424997 58.59155273 71.11352539 C50.23554865 72.21455181 42.0034731 72.21446844 33.59155273 72.11352539 C32.93155273 70.13352539 32.27155273 68.15352539 31.59155273 66.11352539 C30.66342773 66.71165039 29.73530273 67.30977539 28.77905273 67.92602539 C19.90543097 72.95560858 12.27722158 73.61438982 2.52905273 71.42602539 C-3.52019008 68.72317222 -7.2156799 65.2427341 -9.76890564 59.07633972 C-13.41278536 47.89292484 -9.62644295 33.42562211 -7.47265625 22.22338867 C-6.96125631 19.56311356 -6.47128495 16.8995206 -5.98461914 14.23461914 C-5.67005202 12.53778387 -5.35434221 10.84115995 -5.03735352 9.14477539 C-4.88939835 8.35018921 -4.74144318 7.55560303 -4.58900452 6.73693848 C-3.31916885 0.15645347 -3.31916885 0.15645347 0 0 Z " fill="#4B1565" transform="translate(146.408447265625,49.886474609375)"/>
<path d="M0 0 C0.62648438 0.2784375 1.25296875 0.556875 1.8984375 0.84375 C10.38351586 5.1418683 14.09914813 12.2974444 17 21 C17.88252905 34.05124693 15.89094794 45.93327476 7.19140625 56.1171875 C5.51593409 57.85187593 3.89870724 59.51259962 2 61 C1.34 61 0.68 61 0 61 C0 61.66 0 62.32 0 63 C-11.99209938 70.05417611 -24.94966132 73.30898574 -38.7734375 69.81640625 C-46.75156968 66.89109112 -53.44668629 60.98504106 -57.3125 53.4375 C-60.44535396 42.33010869 -60.08782945 29.76452663 -54.640625 19.41796875 C-51.87747562 15.12369278 -48.80497125 11.42447412 -45 8 C-43.63875 6.7315625 -43.63875 6.7315625 -42.25 5.4375 C-30.80816542 -3.86813528 -13.32314735 -5.96712391 0 0 Z M-26 22 C-26 22.66 -26 23.32 -26 24 C-26.66 24 -27.32 24 -28 24 C-31.07685013 28.43066419 -32.14180145 32.16240907 -32.1875 37.5 C-32.20167969 38.2528125 -32.21585937 39.005625 -32.23046875 39.78125 C-31.97000524 42.28876311 -31.33185516 43.86903174 -30 46 C-26.50371579 47.7481421 -22.81498182 47.55875996 -19 47 C-13.92619089 43.89933888 -11.69844894 40.66149648 -10 35 C-9.48785452 30.19558767 -9.36134051 26.19185036 -12 22 C-16.57742051 18.94838633 -21.32663572 19.00904686 -26 22 Z " fill="#4D1763" transform="translate(433,52)"/>
<path d="M0 0 C5.67961771 4.57305203 8.13626508 10.14017326 9.6875 17.25 C9.6875 19.23 9.6875 21.21 9.6875 23.25 C0.4475 23.25 -8.7925 23.25 -18.3125 23.25 C-18.6425 21.6 -18.9725 19.95 -19.3125 18.25 C-24.91411686 16.97823864 -24.91411686 16.97823864 -30.125 18.75 C-35.0928224 24.42751132 -36.56591045 30.90109682 -36.3125 38.25 C-36.02729595 39.92557379 -35.71294304 41.59817245 -35.3125 43.25 C-33.91946395 43.38657216 -32.52243879 43.48271149 -31.125 43.5625 C-29.95904297 43.64951172 -29.95904297 43.64951172 -28.76953125 43.73828125 C-26.05121834 43.47725862 -26.05121834 43.47725862 -24.375 40.75 C-19.35608837 36.65292928 -13.75537817 37.72715361 -7.5 37.9375 C-6.23478516 37.96005859 -4.96957031 37.98261719 -3.66601562 38.00585938 C-0.54697381 38.06470922 2.56965902 38.1468863 5.6875 38.25 C4.14171839 48.48468297 -2.18208119 55.15218589 -10.3125 61.25 C-17.41962935 65.68537517 -24.86579231 67.63276994 -33.25 67.5625 C-33.95511719 67.55686035 -34.66023438 67.5512207 -35.38671875 67.54541016 C-44.39241419 67.33486033 -50.68272488 64.28352126 -57.3125 58.25 C-63.31582118 51.91231662 -64.77899022 44.17759953 -64.5703125 35.63671875 C-63.76963611 28.22439638 -61.04227674 21.13943654 -58.3125 14.25 C-57.6525 14.25 -56.9925 14.25 -56.3125 14.25 C-56.126875 13.569375 -55.94125 12.88875 -55.75 12.1875 C-51.93708459 4.39589026 -44.30904457 -0.37069306 -36.6875 -4 C-24.5029241 -7.84776081 -10.62818075 -7.28010916 0 0 Z " fill="#4C1764" transform="translate(304.3125,57.75)"/>
<path d="M0 0 C21.72913356 0.10897498 43.45824315 0.22198186 65.18733311 0.33933926 C75.28462971 0.39378761 85.38192958 0.44706946 95.47924805 0.49731445 C142.99201426 0.73442028 190.49482696 1.08599415 238 2 C238 2.66 238 3.32 238 4 C234.9324931 5.53375345 231.64063697 5.44036125 228.265625 5.68359375 C227.47718201 5.74402359 226.68873901 5.80445343 225.87640381 5.86671448 C223.33455051 6.060925 220.79232165 6.24952842 218.25 6.4375 C208.32354737 7.18178731 198.40118784 7.94399218 188.48901367 8.86108398 C179.01492417 9.72929037 169.53928384 10.57942676 160.06274414 11.42041016 C159.34587728 11.48403681 158.62901042 11.54766346 157.89042032 11.61321819 C144.15709282 12.83167604 130.42303773 14.04188531 116.68872929 15.24923134 C107.98641134 16.01436661 99.28432849 16.78200661 90.58276367 17.55566406 C82.92310278 18.2366823 75.26304762 18.91304923 67.60249037 19.58391225 C63.5705929 19.93715128 59.53891639 20.29256316 55.5077076 20.65358353 C51.72161773 20.99257242 47.93502244 21.32524476 44.14797592 21.653368 C42.12414765 21.83027966 40.10088233 22.01359646 38.07765198 22.19721985 C31.67062647 22.74634524 25.26043124 23.16946703 18.83201599 23.33944702 C17.62585853 23.37849844 16.41970106 23.41754986 15.17699337 23.45778465 C11.27375714 22.895353 10.10188557 21.7508664 7.65625 18.73046875 C6.5482367 16.91580088 5.49641805 15.0657609 4.5 13.1875 C3.93925781 12.25873047 3.37851563 11.32996094 2.80078125 10.37304688 C-0.0017131 5.58112752 -0.0017131 5.58112752 -1 3 C-0.67 2.01 -0.34 1.02 0 0 Z " fill="#4D1861" transform="translate(143,129)"/>
<path d="M0 0 C1.02673828 -0.00128906 2.05347656 -0.00257812 3.11132812 -0.00390625 C4.18705078 -0.00003906 5.26277344 0.00382812 6.37109375 0.0078125 C7.45068359 0.00394531 8.53027344 0.00007813 9.64257812 -0.00390625 C11.18075195 -0.00197266 11.18075195 -0.00197266 12.75 0 C13.69560791 0.00112793 14.64121582 0.00225586 15.61547852 0.00341797 C17.80859375 0.1328125 17.80859375 0.1328125 18.80859375 1.1328125 C18.79521935 11.17832289 16.25482247 21.35598351 14.43359375 31.1953125 C13.97237268 33.7074591 13.51258545 36.21985916 13.05413818 38.73251343 C12.75095606 40.39158326 12.44583527 42.05030003 12.13873291 43.70864868 C11.36983316 47.89295752 10.65147324 52.07748608 10.01855469 56.28466797 C9.89185394 57.10954208 9.7651532 57.9344162 9.63461304 58.7842865 C9.39728358 60.3490877 9.17001131 61.91545892 8.95449829 63.4834137 C8.5217904 66.31341129 8.09353171 68.67693412 6.5637207 71.12451172 C4.03092387 72.57957514 2.16588745 72.37582959 -0.734375 72.20703125 C-1.80751953 72.15224609 -2.88066406 72.09746094 -3.98632812 72.04101562 C-5.6656543 71.93176758 -5.6656543 71.93176758 -7.37890625 71.8203125 C-8.51005859 71.75908203 -9.64121094 71.69785156 -10.80664062 71.63476562 C-13.60265928 71.48139751 -16.39704388 71.31353296 -19.19140625 71.1328125 C-18.55217155 63.2663562 -17.31987054 55.56032083 -15.94140625 47.79296875 C-15.72323242 46.54905869 -15.50505859 45.30514862 -15.28027344 44.02354431 C-14.82141195 41.41209767 -14.36117076 38.80094386 -13.8984375 36.19018555 C-13.30590155 32.84641422 -12.71872251 29.50172903 -12.13323975 26.15671635 C-11.57172646 22.95170519 -11.00647715 19.74735428 -10.44140625 16.54296875 C-10.2309668 15.34301773 -10.02052734 14.14306671 -9.80371094 12.90675354 C-9.60680664 11.79807419 -9.40990234 10.68939484 -9.20703125 9.54711914 C-9.03461914 8.57134415 -8.86220703 7.59556915 -8.68457031 6.59022522 C-8.19140625 4.1328125 -8.19140625 4.1328125 -7.19140625 1.1328125 C-4.64865076 -0.13856524 -2.84332424 0.0033875 0 0 Z " fill="#4D1763" transform="translate(226.19140625,49.8671875)"/>
<path d="M0 0 C3.25034525 1.23370769 3.82712538 2.0424762 6 5 C7.49972667 9.63788304 7.24852729 13.15776862 5.875 17.8125 C3.33150609 22.13643965 1.36473044 24.25011688 -3.48828125 25.7890625 C-8.86524931 27.02360842 -13.25677089 27.49873861 -18.3359375 25.10546875 C-21.31454091 23.12672517 -22.5848754 21.2609393 -24 18 C-24 12.10005907 -22.8735661 8.60640293 -19 4 C-13.61665952 -1.24530611 -7.08341888 -1.00678035 0 0 Z " fill="#4D1761" transform="translate(244,19)"/>
<path d="M0 0 C0.9339903 0.00054477 1.86798059 0.00108953 2.83027363 0.00165081 C3.90313114 -0.00254368 4.97598866 -0.00673817 6.081357 -0.01105976 C7.26559254 -0.00544025 8.44982807 0.00017925 9.66994953 0.00596905 C10.91503788 0.0040707 12.16012623 0.00217236 13.44294453 0.00021648 C16.88505125 -0.00286945 20.32692092 0.00308064 23.76899981 0.01316953 C27.43376064 0.02202214 31.0985182 0.02019043 34.76328754 0.01980877 C40.98382374 0.02074955 47.20431167 0.02944775 53.42483234 0.04307842 C59.67386555 0.05672867 65.92285429 0.06411286 72.17190266 0.06358624 C114.38199036 0.06032464 156.57219984 0.43442083 198.77468586 1.24888897 C198.77468586 1.90888897 198.77468586 2.56888897 198.77468586 3.24888897 C195.70718529 4.78263925 192.41533125 4.68930731 189.04031086 4.93248272 C188.25843906 4.99232342 187.47656727 5.05216412 186.67100239 5.11381817 C184.1224925 5.30832558 181.57360435 5.49731879 179.02468586 5.68638897 C175.54925715 5.94982982 172.07406231 6.21627441 168.59890461 6.48326397 C167.74465397 6.54857815 166.89040333 6.61389233 166.0102663 6.68118572 C158.42715565 7.26529793 150.85376304 7.93770702 143.28542805 8.69005108 C131.02333435 9.87321321 131.02333435 9.87321321 125.77468586 7.24888897 C129.07468586 7.24888897 132.37468586 7.24888897 135.77468586 7.24888897 C135.44468586 5.92888897 135.11468586 4.60888897 134.77468586 3.24888897 C65.96968586 2.75388897 65.96968586 2.75388897 -4.22531414 2.24888897 C-2.22531414 0.24888897 -2.22531414 0.24888897 0 0 Z " fill="#6C3040" transform="translate(182.22531414031982,129.7511110305786)"/>
<path d="M0 0 C1.5631897 0.00785522 1.5631897 0.00785522 3.15795898 0.01586914 C4.28266602 0.0190918 5.40737305 0.02231445 6.56616211 0.02563477 C7.75016602 0.03401367 8.93416992 0.04239258 10.15405273 0.05102539 C11.34192383 0.05553711 12.52979492 0.06004883 13.75366211 0.06469727 C16.69967499 0.07652864 19.64558954 0.09301252 22.59155273 0.11352539 C23.08655273 1.59852539 23.08655273 1.59852539 23.59155273 3.11352539 C22.93155273 4.10352539 22.27155273 5.09352539 21.59155273 6.11352539 C21.59155273 4.79352539 21.59155273 3.47352539 21.59155273 2.11352539 C14.00155273 2.44352539 6.41155273 2.77352539 -1.40844727 3.11352539 C-2.0250502 8.24360882 -2.0250502 8.24360882 -2.63476562 13.37451172 C-3.0084553 16.42331456 -3.43461908 19.19204083 -4.40844727 22.11352539 C-4.67725116 25.10876883 -4.85273275 28.10373428 -5.02954102 31.10571289 C-5.40762384 34.10698896 -6.20186041 36.35762467 -7.40844727 39.11352539 C-9.27860337 47.52922786 -8.99345123 56.16765838 -5.40844727 64.11352539 C-2.37403826 66.16909278 -0.03180184 66.31482287 3.59155273 66.11352539 C3.92155273 67.10352539 4.25155273 68.09352539 4.59155273 69.11352539 C5.63956055 69.09032227 6.68756836 69.06711914 7.76733398 69.04321289 C9.14623311 69.02445236 10.52513994 69.00625246 11.90405273 68.98852539 C12.5943457 68.97176758 13.28463867 68.95500977 13.99584961 68.93774414 C17.76290669 68.90134745 19.37586978 68.96973675 22.59155273 71.11352539 C14.46075837 73.39090066 7.50955486 73.65135613 -0.40844727 70.11352539 C-5.59578689 66.6404568 -8.45371246 63.11279321 -10.40844727 57.11352539 C-11.73093764 45.34765234 -9.6890139 33.75106492 -7.47265625 22.22338867 C-6.96125631 19.56311356 -6.47128495 16.8995206 -5.98461914 14.23461914 C-5.67005202 12.53778387 -5.35434221 10.84115995 -5.03735352 9.14477539 C-4.88939835 8.35018921 -4.74144318 7.55560303 -4.58900452 6.73693848 C-3.31916885 0.15645347 -3.31916885 0.15645347 0 0 Z " fill="#672D36" transform="translate(146.408447265625,49.886474609375)"/>
<path d="M0 0 C0.93423645 3.01031744 1.04449911 3.86650268 0 7 C-0.0928125 7.928125 -0.0928125 7.928125 -0.1875 8.875 C-1.4793952 12.25380284 -4.19802612 13.82704066 -7 16 C-7.66 16.66 -8.32 17.32 -9 18 C-9.66 18.33 -10.32 18.66 -11 19 C-14.87033644 24.91933809 -14.45084051 33.17141561 -14 40 C-13.20609435 43.45916031 -12.21631778 46.49905356 -10.8125 49.75 C-10 52 -10 52 -11 55 C-16.95860336 47.25381563 -17.81478634 38.58343934 -17 29 C-15.34857774 18.16167409 -11.06350968 10.4097116 -3 3 C-2.401875 2.401875 -1.80375 1.80375 -1.1875 1.1875 C-0.795625 0.795625 -0.40375 0.40375 0 0 Z " fill="#531A57" transform="translate(391,57)"/>
<path d="M0 0 C0.969375 0.763125 1.93875 1.52625 2.9375 2.3125 C-0.68576739 3.5202558 -1.70396369 2.85561128 -5.0625 1.3125 C-5.0625 0.3225 -5.0625 -0.6675 -5.0625 -1.6875 C-7.3725 -1.0275 -9.6825 -0.3675 -12.0625 0.3125 C-11.7325 -0.3475 -11.4025 -1.0075 -11.0625 -1.6875 C-13.7025 -2.0175 -16.3425 -2.3475 -19.0625 -2.6875 C-18.4025 -2.3575 -17.7425 -2.0275 -17.0625 -1.6875 C-17.0625 -1.0275 -17.0625 -0.3675 -17.0625 0.3125 C-19.4375 0.4375 -19.4375 0.4375 -22.0625 0.3125 C-24.0625 -1.6875 -24.0625 -1.6875 -25.0625 -3.6875 C-27.3725 -3.3575 -29.6825 -3.0275 -32.0625 -2.6875 C-32.3925 -1.6975 -32.7225 -0.7075 -33.0625 0.3125 C-37.5175 0.8075 -37.5175 0.8075 -42.0625 1.3125 C-42.0625 1.9725 -42.0625 2.6325 -42.0625 3.3125 C-42.7225 3.3125 -43.3825 3.3125 -44.0625 3.3125 C-44.3925 4.3025 -44.7225 5.2925 -45.0625 6.3125 C-46.0525 6.3125 -47.0425 6.3125 -48.0625 6.3125 C-48.0625 6.9725 -48.0625 7.6325 -48.0625 8.3125 C-48.701875 8.415625 -49.34125 8.51875 -50 8.625 C-51.0209375 8.9653125 -51.0209375 8.9653125 -52.0625 9.3125 C-52.3925 10.3025 -52.7225 11.2925 -53.0625 12.3125 C-53.7225 12.3125 -54.3825 12.3125 -55.0625 12.3125 C-53.58407091 8.77850105 -51.62187221 6.75504483 -48.75 4.25 C-47.61111328 3.24259766 -47.61111328 3.24259766 -46.44921875 2.21484375 C-33.61041241 -8.01837833 -13.62683643 -9.53607639 0 0 Z " fill="#5B2247" transform="translate(304.0625,57.6875)"/>
<path d="M0 0 C0.66 0.33 1.32 0.66 2 1 C0.58163643 6.1576857 -1.67391575 10.79975258 -5 15 C-5.66 15 -6.32 15 -7 15 C-7.226875 15.556875 -7.45375 16.11375 -7.6875 16.6875 C-9.35896766 19.63246684 -11.55276352 21.68156544 -14 24 C-13.34 25.65 -12.68 27.3 -12 29 C-14.475 28.01 -14.475 28.01 -17 27 C-17 25.35 -17 23.7 -17 22 C-16.34 22 -15.68 22 -15 22 C-14.96261719 21.24074219 -14.92523438 20.48148438 -14.88671875 19.69921875 C-14.82097656 18.70535156 -14.75523438 17.71148437 -14.6875 16.6875 C-14.62949219 15.70136719 -14.57148437 14.71523437 -14.51171875 13.69921875 C-13.94520805 10.71098293 -13.39756263 9.79527637 -11 8 C-9.34183216 7.31246699 -7.67540664 6.64438717 -6 6 C-5.34 5.34 -4.68 4.68 -4 4 C-4 4.66 -4 5.32 -4 6 C-3.34 6 -2.68 6 -2 6 C-2 4.68 -2 3.36 -2 2 C-1.34 2 -0.68 2 0 2 C0 1.34 0 0.68 0 0 Z " fill="#521A5B" transform="translate(134,74)"/>
<path d="M0 0 C1.77734375 1.28125 1.77734375 1.28125 3.77734375 4.28125 C-0.36428539 3.82106898 -2.47083449 3.42618915 -5.22265625 0.28125 C-6.21265625 -0.04875 -7.20265625 -0.37875 -8.22265625 -0.71875 C-8.55265625 0.93125 -8.88265625 2.58125 -9.22265625 4.28125 C-10.87265625 4.28125 -12.52265625 4.28125 -14.22265625 4.28125 C-13.56265625 2.96125 -12.90265625 1.64125 -12.22265625 0.28125 C-13.21265625 0.28125 -14.20265625 0.28125 -15.22265625 0.28125 C-15.22265625 -0.70875 -15.22265625 -1.69875 -15.22265625 -2.71875 C-15.88265625 -2.71875 -16.54265625 -2.71875 -17.22265625 -2.71875 C-17.22265625 -3.37875 -17.22265625 -4.03875 -17.22265625 -4.71875 C-24.40003832 -4.3307834 -31.33151968 -3.89046203 -38.3125 -2.12890625 C-40.9658887 -1.55916021 -43.52265755 -1.58028853 -46.22265625 -1.71875 C-32.48231528 -10.87897732 -13.54213868 -7.64041097 0 0 Z " fill="#49145B" transform="translate(126.22265625,21.71875)"/>
<path d="M0 0 C5.94 0 11.88 0 18 0 C18 0.33 18 0.66 18 1 C13.38 1.33 8.76 1.66 4 2 C4.70545101 6.58855901 4.70545101 6.58855901 6 11 C8.42383077 12.16953416 8.42383077 12.16953416 11 13 C11.99 15.31 12.98 17.62 14 20 C22.58 20 31.16 20 40 20 C39.67 20.66 39.34 21.32 39 22 C36.18972855 22.5300512 33.4387987 22.64414525 30.58203125 22.76953125 C26.96143905 22.91877919 26.96143905 22.91877919 23.32421875 23.76171875 C15.74114124 24.87201359 15.74114124 24.87201359 12 23 C6.53784277 17.62402256 1.76676419 10.15362609 -1 3 C-0.67 2.01 -0.34 1.02 0 0 Z " fill="#6B3136" transform="translate(143,129)"/>
<path d="M0 0 C0 0.66 0 1.32 0 2 C-12.15814433 3.04165691 -24.24204768 3.11908399 -36.4375 3.0625 C-38.34439985 3.05747031 -40.25130101 3.05291003 -42.15820312 3.04882812 C-46.77216822 3.03794957 -51.38606925 3.02076764 -56 3 C-56 2.34 -56 1.68 -56 1 C-37.32914037 -0.12912326 -18.69577483 -0.10703059 0 0 Z " fill="#4D1B4A" transform="translate(379,132)"/>
<path d="M0 0 C0.66 0.99 1.32 1.98 2 3 C1.30575271 4.68662479 0.59918809 6.36987304 -0.18603516 8.01611328 C-1.56598595 11.37948465 -1.82918077 14.84444574 -2.1875 18.4375 C-2.26935547 19.16904297 -2.35121094 19.90058594 -2.43554688 20.65429688 C-2.63341885 22.43514466 -2.81810707 24.21744927 -3 26 C-2.01 25.67 -1.02 25.34 0 25 C-0.66666667 27 -1.33333333 29 -2 31 C-1.44941438 37.87314384 -0.406606 43.99788467 3 50 C2.67 50.66 2.34 51.32 2 52 C1.20010196 50.79709989 0.41052176 49.58733705 -0.375 48.375 C-0.81585938 47.70210937 -1.25671875 47.02921875 -1.7109375 46.3359375 C-7.75424308 35.38473527 -6.53125636 22.16217859 -3.984375 10.40234375 C-2.92619863 6.74491668 -1.57080552 3.46371442 0 0 Z " fill="#60283C" transform="translate(55,42)"/>
<path d="M0 0 C4.14581887 -0.02886751 8.29161216 -0.04675327 12.4375 -0.0625 C13.62150391 -0.07087891 14.80550781 -0.07925781 16.02539062 -0.08789062 C17.15009766 -0.09111328 18.27480469 -0.09433594 19.43359375 -0.09765625 C20.47572021 -0.10289307 21.51784668 -0.10812988 22.59155273 -0.11352539 C25 0 25 0 26 1 C25.82364548 3.69082872 25.38164079 6.32851446 25 9 C24.34 8.34 23.68 7.68 23 7 C23 5.68 23 4.36 23 3 C15.74 2.67 8.48 2.34 1 2 C0.67 8.6 0.34 15.2 0 22 C-1.98 22.99 -1.98 22.99 -4 24 C-3.52056281 15.75037383 -1.99052616 8.00873482 0 0 Z " fill="#7D393A" transform="translate(191,50)"/>
<path d="M0 0 C0.66 1.32 1.32 2.64 2 4 C1.071875 4.3403125 1.071875 4.3403125 0.125 4.6875 C-2.70166311 6.43338016 -2.95691787 7.8707536 -4 11 C-4.515625 12.03125 -5.03125 13.0625 -5.5625 14.125 C-8.15148692 20.21907692 -8.9829555 27.13821501 -6.75 33.4375 C-5.3521522 36.28311874 -4.07704334 38.62623618 -2 41 C-3.98 40.67 -5.96 40.34 -8 40 C-8 39.34 -8 38.68 -8 38 C-8.66 38 -9.32 38 -10 38 C-9.979375 36.88625 -9.95875 35.7725 -9.9375 34.625 C-9.73619282 31.16784079 -9.73619282 31.16784079 -11 29 C-11.14285254 24.85727642 -11.0455409 20.91964362 -10.5 16.8125 C-10.10472243 13.79850852 -9.90541119 11.0268419 -10 8 C-7.03 7.01 -4.06 6.02 -1 5 C-0.67 3.35 -0.34 1.7 0 0 Z " fill="#511343" transform="translate(84,40)"/>
<path d="M0 0 C8.58 0 17.16 0 26 0 C25.40474056 7.14311333 24.82288083 13.5752778 23.4765625 20.5078125 C22.87356929 23.66117044 22.42423235 26.81825736 22 30 C21.67 30 21.34 30 21 30 C20.73522124 20.32086535 21.4393735 11.55883732 23 2 C16.07 2 9.14 2 2 2 C2 2.99 2 3.98 2 5 C1.34 5 0.68 5 0 5 C-0.33 5.66 -0.66 6.32 -1 7 C-0.67 4.69 -0.34 2.38 0 0 Z " fill="#6B3138" transform="translate(324,27)"/>
<path d="M0 0 C3 2 3 2 3.6171875 3.91796875 C4.24375239 9.43363843 3.90463459 13.0621212 1 18 C-2.62588705 22.1924319 -6.91096119 23.07824015 -12.2109375 23.87109375 C-16.39969273 24.06469168 -19.50259299 23.3233948 -23 21 C-25.54101604 18.33503196 -26.99136929 16.59668203 -27.01171875 12.83203125 C-26.77937496 10.87271418 -26.39975 8.93212499 -26 7 C-25.67 7 -25.34 7 -25 7 C-24.97421875 7.60328125 -24.9484375 8.2065625 -24.921875 8.828125 C-24.86515625 9.62734375 -24.8084375 10.4265625 -24.75 11.25 C-24.70359375 12.03890625 -24.6571875 12.8278125 -24.609375 13.640625 C-23.77047923 16.88865733 -22.72737431 18.04188511 -20 20 C-17.29447755 20.4490016 -14.95769409 20.69369634 -12.25 20.75 C-11.55261719 20.77964844 -10.85523438 20.80929688 -10.13671875 20.83984375 C-8.42509187 20.91018458 -6.71254185 20.95739946 -5 21 C-5 20.01 -5 19.02 -5 18 C-4.34 17.67 -3.68 17.34 -3 17 C-2.67 16.34 -2.34 15.68 -2 15 C-1.34 15.33 -0.68 15.66 0 16 C0 14.68 0 13.36 0 12 C0.66 12 1.32 12 2 12 C1.34 8.04 0.68 4.08 0 0 Z " fill="#6C3533" transform="translate(247,22)"/>
<path d="M0 0 C0.33 0 0.66 0 1 0 C0.85816304 1.75032844 0.71136571 3.50025534 0.5625 5.25 C0.48128906 6.22453125 0.40007812 7.1990625 0.31640625 8.203125 C0.04925416 10.56461753 -0.35371968 12.71901065 -1 15 C-9.35600408 16.10102642 -17.58807963 16.10094304 -26 16 C-26.66 14.02 -27.32 12.04 -28 10 C-29.32 10.99 -30.64 11.98 -32 13 C-32.66 12.67 -33.32 12.34 -34 12 C-33.34 10.02 -32.68 8.04 -32 6 C-29.69 6.33 -27.38 6.66 -25 7 C-25 9.31 -25 11.62 -25 14 C-24.12601563 13.89171875 -24.12601563 13.89171875 -23.234375 13.78125 C-16.46834834 13.01528472 -9.80478149 12.89477142 -3 13 C-3 11.35 -3 9.7 -3 8 C-2.34 8 -1.68 8 -1 8 C-0.67 5.36 -0.34 2.72 0 0 Z " fill="#62082F" transform="translate(206,106)"/>
<path d="M0 0 C1.26521484 0.02255859 2.53042969 0.04511719 3.83398438 0.06835938 C6.95302619 0.12720922 10.06965902 0.2093863 13.1875 0.3125 C12.54516669 4.74220105 11.73475748 7.52273418 9.125 11.1875 C8.57714844 11.96867187 8.02929688 12.74984375 7.46484375 13.5546875 C7.04332031 14.13476562 6.62179687 14.71484375 6.1875 15.3125 C5.5275 14.9825 4.8675 14.6525 4.1875 14.3125 C4.496875 13.735 4.80625 13.1575 5.125 12.5625 C6.11333364 10.46955816 6.7043613 8.56714725 7.1875 6.3125 C8.1775 6.3125 9.1675 6.3125 10.1875 6.3125 C10.5175 4.6625 10.8475 3.0125 11.1875 1.3125 C3.5975 1.6425 -3.9925 1.9725 -11.8125 2.3125 C-13.1325 4.9525 -14.4525 7.5925 -15.8125 10.3125 C-16.1425 9.6525 -16.4725 8.9925 -16.8125 8.3125 C-20.1125 8.3125 -23.4125 8.3125 -26.8125 8.3125 C-27.1425 7.3225 -27.4725 6.3325 -27.8125 5.3125 C-27.22082031 5.37050781 -26.62914062 5.42851563 -26.01953125 5.48828125 C-25.22933594 5.53339844 -24.43914062 5.57851562 -23.625 5.625 C-22.45904297 5.71201172 -22.45904297 5.71201172 -21.26953125 5.80078125 C-18.55121834 5.53975862 -18.55121834 5.53975862 -16.875 2.8125 C-11.85608837 -1.28457072 -6.25537817 -0.21034639 0 0 Z " fill="#591F31" transform="translate(296.8125,95.6875)"/>
<path d="M0 0 C5.58381831 5.96890923 7 11.99637921 7 20 C-2.24 20 -11.48 20 -21 20 C-21.33 18.35 -21.66 16.7 -22 15 C-22.99 14.67 -23.98 14.34 -25 14 C-23.68 13.67 -22.36 13.34 -21 13 C-20.67 14.65 -20.34 16.3 -20 18 C-11.75 18 -3.5 18 5 18 C4.34 14.7 3.68 11.4 3 8 C2.34 8 1.68 8 1 8 C-0.35439668 5.29120665 -0.06501451 2.99066732 0 0 Z " fill="#5B2130" transform="translate(307,61)"/>
<path d="M0 0 C1.41687119 4.25061356 0.19320039 6.71851625 -1 11 C-1.66 11 -2.32 11 -3 11 C-4.16681369 15.62095264 -4.14844001 20.08152422 -4.125 24.8125 C-4.12886719 25.58142578 -4.13273438 26.35035156 -4.13671875 27.14257812 C-4.1282177 32.17944806 -3.71633268 37.01409716 -3 42 C-7.35410106 38.20656401 -7.6586578 33.31925864 -8.2265625 27.796875 C-8.58405803 18.76198796 -5.28161052 10.28215989 -2 2 C-1.34 2 -0.68 2 0 2 C0 1.34 0 0.68 0 0 Z " fill="#662E3B" transform="translate(248,70)"/>
<path d="M0 0 C0.33 0 0.66 0 1 0 C1.0278024 1.62489571 1.0467446 3.24994283 1.0625 4.875 C1.07410156 5.77992187 1.08570313 6.68484375 1.09765625 7.6171875 C0.96849767 12.09124087 0.44537042 16.54629584 0 21 C7.26 21 14.52 21 22 21 C22.33 20.01 22.66 19.02 23 18 C23 19.65 23 21.3 23 23 C14.42 23 5.84 23 -3 23 C-1.875 9.5 -1.875 9.5 -0.9375 4.75 C-0.67259766 3.38101563 -0.67259766 3.38101563 -0.40234375 1.984375 C-0.26957031 1.32953125 -0.13679688 0.6746875 0 0 Z " fill="#84483B" transform="translate(311,98)"/>
<path d="M0 0 C2 2 2 2 2.03149414 3.85424805 C1.92957764 4.58683838 1.82766113 5.31942871 1.72265625 6.07421875 C1.61324707 6.88036621 1.50383789 7.68651367 1.39111328 8.51708984 C0.91380209 11.54721146 0.3976294 14.56721853 -0.1550293 17.58447266 C-1.59541904 25.46044435 -2.4253814 32.96501793 -2 41 C-2.99 40.67 -3.98 40.34 -5 40 C-5.02694851 38.04174127 -5.04637218 36.08337774 -5.0625 34.125 C-5.07410156 33.03445312 -5.08570313 31.94390625 -5.09765625 30.8203125 C-5 28 -5 28 -4 26 C-3.73634236 22.77385576 -3.5556966 19.55452624 -3.39453125 16.32226562 C-3.10079169 11.10079169 -3.10079169 11.10079169 -2 10 C-1.6068352 8.32115762 -1.25914548 6.63149955 -0.9375 4.9375 C-0.76089844 4.01839844 -0.58429688 3.09929688 -0.40234375 2.15234375 C-0.26957031 1.44207031 -0.13679687 0.73179688 0 0 Z " fill="#6F333A" transform="translate(166,57)"/>
<path d="M0 0 C0.99 0.33 1.98 0.66 3 1 C2.69112547 3.43800966 2.37805338 5.87535367 2.0625 8.3125 C1.97548828 9.00279297 1.88847656 9.69308594 1.79882812 10.40429688 C1.40789865 13.40142288 0.9584996 16.12450119 0 19 C-0.17528603 20.74729567 -0.31760275 22.49803196 -0.4375 24.25 C-0.90801371 29.89616453 -2.21242644 34.63727932 -4 40 C-4.66 40 -5.32 40 -6 40 C-4.24238272 26.62100976 -2.31422571 13.29448811 0 0 Z " fill="#78393D" transform="translate(322,35)"/>
<path d="M0 0 C0.99 0.66 1.98 1.32 3 2 C-0.10810877 7.41856132 -3.31617862 11.83660322 -8 16 C-8.66 16 -9.32 16 -10 16 C-10 16.66 -10 17.32 -10 18 C-11.32 18.33 -12.64 18.66 -14 19 C-13.01 15.535 -13.01 15.535 -12 12 C-11.34 12 -10.68 12 -10 12 C-9.67 10.35 -9.34 8.7 -9 7 C-6.69 6.34 -4.38 5.68 -2 5 C-2.66 4.67 -3.32 4.34 -4 4 C-2.68 3.34 -1.36 2.68 0 2 C0 1.34 0 0.68 0 0 Z " fill="#5E264E" transform="translate(443,97)"/>
<path d="M0 0 C1.02673828 -0.00128906 2.05347656 -0.00257812 3.11132812 -0.00390625 C4.18705078 -0.00003906 5.26277344 0.00382812 6.37109375 0.0078125 C7.45068359 0.00394531 8.53027344 0.00007813 9.64257812 -0.00390625 C11.18075195 -0.00197266 11.18075195 -0.00197266 12.75 0 C13.69560791 0.00112793 14.64121582 0.00225586 15.61547852 0.00341797 C17.80859375 0.1328125 17.80859375 0.1328125 18.80859375 1.1328125 C18.84940158 3.13239614 18.85113731 5.13326504 18.80859375 7.1328125 C18.14859375 7.1328125 17.48859375 7.1328125 16.80859375 7.1328125 C16.80859375 5.4828125 16.80859375 3.8328125 16.80859375 2.1328125 C9.54859375 2.1328125 2.28859375 2.1328125 -5.19140625 2.1328125 C-5.85140625 7.4128125 -6.51140625 12.6928125 -7.19140625 18.1328125 C-9.19140625 16.1328125 -9.19140625 16.1328125 -9.203125 13.41796875 C-9.09613281 12.35449219 -8.98914063 11.29101562 -8.87890625 10.1953125 C-8.77964844 9.13441406 -8.68039063 8.07351562 -8.578125 6.98046875 C-8.19140625 4.1328125 -8.19140625 4.1328125 -7.19140625 1.1328125 C-4.64865076 -0.13856524 -2.84332424 0.0033875 0 0 Z " fill="#6E3238" transform="translate(226.19140625,49.8671875)"/>
<path d="M0 0 C8.11320755 0.78011611 8.11320755 0.78011611 11 4 C12.75125945 9.69159323 12.08602339 16.09306043 12 22 C12.99 22 13.98 22 15 22 C14.75 24.375 14.75 24.375 14 27 C12.0625 28.375 12.0625 28.375 10 29 C9.34 28.67 8.68 28.34 8 28 C8.165 27.2575 8.33 26.515 8.5 25.75 C9.52660339 18.05047454 10.29329997 10.79772495 6 4 C6 3.34 6 2.68 6 2 C3.03 1.505 3.03 1.505 0 1 C0 0.67 0 0.34 0 0 Z " fill="#632737" transform="translate(104,40)"/>
<path d="M0 0 C0.33 0 0.66 0 1 0 C1.04241723 2.33294775 1.04092937 4.66702567 1 7 C0.67 7.33 0.34 7.66 0 8 C-1.79100027 17.3530014 -1.63263221 25.90337804 2.1875 34.75 C3 37 3 37 2 40 C-3.93603288 32.28315726 -4.86877683 23.55654508 -4 14 C-2.09302326 4.18604651 -2.09302326 4.18604651 0 0 Z " fill="#5C213B" transform="translate(378,72)"/>
<path d="M0 0 C1.49754868 3.96383806 0.56720878 7.58920523 -0.21484375 11.609375 C-0.41673058 12.69958954 -0.41673058 12.69958954 -0.62269592 13.81182861 C-1.05311828 16.12610124 -1.49513638 18.43798332 -1.9375 20.75 C-2.2318878 22.3214709 -2.52551645 23.89308423 -2.81835938 25.46484375 C-3.5367839 29.31160209 -4.26561374 33.15625837 -5 37 C-5.33 37 -5.66 37 -6 37 C-6.32201657 24.0656679 -6.22788683 11.69996215 0 0 Z " fill="#6C3435" transform="translate(243,58)"/>
<path d="M0 0 C0.99 0.33 1.98 0.66 3 1 C3 1.66 3 2.32 3 3 C6.13498292 4.85776765 8.37471432 5.20140476 12 5 C12.33 5.99 12.66 6.98 13 8 C14.57201172 7.96519531 14.57201172 7.96519531 16.17578125 7.9296875 C17.55468037 7.91092697 18.9335872 7.89272707 20.3125 7.875 C21.00279297 7.85824219 21.69308594 7.84148437 22.40429688 7.82421875 C26.17135396 7.78782206 27.78431704 7.85621136 31 10 C22.86920564 12.27737527 15.91800213 12.53783074 8 9 C1.42391304 4.27173913 1.42391304 4.27173913 0 0 Z " fill="#6A3434" transform="translate(138,111)"/>
<path d="M0 0 C1.98259697 3.96519393 2.24359157 4.92027232 1.8125 9.0625 C1.73644531 9.91972656 1.66039062 10.77695313 1.58203125 11.66015625 C0.8910218 14.43810698 0.26969251 15.28369542 -2 17 C-4.4519043 17.2487793 -4.4519043 17.2487793 -7.32421875 17.07421875 C-8.35224609 17.01943359 -9.38027344 16.96464844 -10.43945312 16.90820312 C-11.51130859 16.83537109 -12.58316406 16.76253906 -13.6875 16.6875 C-14.77095703 16.62626953 -15.85441406 16.56503906 -16.97070312 16.50195312 C-19.64828378 16.3486115 -22.32415282 16.18075343 -25 16 C-25 14.35 -25 12.7 -25 11 C-24.67 11.99 -24.34 12.98 -24 14 C-13.11 13.505 -13.11 13.505 -2 13 C-1.34 8.71 -0.68 4.42 0 0 Z " fill="#531737" transform="translate(233,105)"/>
<path d="M0 0 C0 0.33 0 0.66 0 1 C-2.64 1.33 -5.28 1.66 -8 2 C-8 1.34 -8 0.68 -8 0 C-15.17738207 0.3879666 -22.10886343 0.82828797 -29.08984375 2.58984375 C-31.74323245 3.15958979 -34.3000013 3.13846147 -37 3 C-26.38799017 -4.07467322 -11.80221702 -3.20060123 0 0 Z " fill="#85473B" transform="translate(117,17)"/>
<path d="M0 0 C-0.7109375 1.953125 -0.7109375 1.953125 -2 4 C-4.1640625 4.609375 -4.1640625 4.609375 -6.625 4.75 C-7.44226563 4.80671875 -8.25953125 4.8634375 -9.1015625 4.921875 C-9.72804688 4.94765625 -10.35453125 4.9734375 -11 5 C-11 5.66 -11 6.32 -11 7 C-11.66 7 -12.32 7 -13 7 C-13.33 7.99 -13.66 8.98 -14 10 C-14.99 10 -15.98 10 -17 10 C-17 10.66 -17 11.32 -17 12 C-17.639375 12.103125 -18.27875 12.20625 -18.9375 12.3125 C-19.9584375 12.6528125 -19.9584375 12.6528125 -21 13 C-21.33 13.99 -21.66 14.98 -22 16 C-22.66 16 -23.32 16 -24 16 C-22.52157091 12.46600105 -20.55937221 10.44254483 -17.6875 7.9375 C-16.54861328 6.93009766 -16.54861328 6.93009766 -15.38671875 5.90234375 C-5.62789575 -1.87596525 -5.62789575 -1.87596525 0 0 Z " fill="#672E3D" transform="translate(273,54)"/>
<path d="M0 0 C4.20390632 1.50139512 5.89110738 4.17275043 8 8 C7.67 8.99 7.34 9.98 7 11 C-2.9 11 -12.8 11 -23 11 C-23 10.67 -23 10.34 -23 10 C-13.76 10 -4.52 10 5 10 C4.67 8.68 4.34 7.36 4 6 C1.525 5.505 1.525 5.505 -1 5 C-1.33 4.01 -1.66 3.02 -2 2 C-1.34 2 -0.68 2 0 2 C0 1.34 0 0.68 0 0 Z " fill="#996046" transform="translate(375,110)"/>
<path d="M0 0 C2.35841093 4.71682186 2.34472028 7.84626532 2.3125 13 C2.31121094 13.84344971 2.30992187 14.68689941 2.30859375 15.5559082 C2.20495781 22.34082392 1.16367552 28.5476105 -1 35 C-1.33 35 -1.66 35 -2 35 C-2 29.39 -2 23.78 -2 18 C-1.34 18 -0.68 18 0 18 C0 12.06 0 6.12 0 0 Z " fill="#652D37" transform="translate(138,40)"/>
<path d="M0 0 C5.94 0 11.88 0 18 0 C18 0.33 18 0.66 18 1 C13.38 1.33 8.76 1.66 4 2 C4.2475 3.44375 4.495 4.8875 4.75 6.375 C4.88921875 7.18710938 5.0284375 7.99921875 5.171875 8.8359375 C5.81749261 11.17709092 5.81749261 11.17709092 8.078125 12.2890625 C8.71234375 12.52367187 9.3465625 12.75828125 10 13 C9.67 13.99 9.34 14.98 9 16 C4.90519801 12.25618103 1.2551317 8.1331093 -1 3 C-0.67 2.01 -0.34 1.02 0 0 Z " fill="#8D4F3F" transform="translate(143,129)"/>
<path d="M0 0 C1.98 0 3.96 0 6 0 C6 0.66 6 1.32 6 2 C13.92 2.66 21.84 3.32 30 4 C30 4.66 30 5.32 30 6 C19.71094784 6.47548893 10.59563059 6.31724595 1 2 C0.67 1.34 0.34 0.68 0 0 Z " fill="#713932" transform="translate(67,101)"/>
<path d="M0 0 C0.99 0 1.98 0 3 0 C3 0.66 3 1.32 3 2 C2.34 2 1.68 2 1 2 C1.99 3.65 2.98 5.3 4 7 C3.39671875 6.98839844 2.7934375 6.97679688 2.171875 6.96484375 C1.37265625 6.95582031 0.5734375 6.94679688 -0.25 6.9375 C-1.03890625 6.92589844 -1.8278125 6.91429688 -2.640625 6.90234375 C-4.90691002 6.99614694 -6.8288895 7.36758937 -9 8 C-9 8.66 -9 9.32 -9 10 C-9.66 10 -10.32 10 -11 10 C-11.33 10.99 -11.66 11.98 -12 13 C-12.33 12.34 -12.66 11.68 -13 11 C-12.67 10.01 -12.34 9.02 -12 8 C-12.66 7.67 -13.32 7.34 -14 7 C-13.195625 6.87625 -12.39125 6.7525 -11.5625 6.625 C-10.716875 6.41875 -9.87125 6.2125 -9 6 C-8.67 5.34 -8.34 4.68 -8 4 C-6.15234375 3.3671875 -6.15234375 3.3671875 -3.9375 2.875 C-2.83728516 2.62363281 -2.83728516 2.62363281 -1.71484375 2.3671875 C-1.14894531 2.24601562 -0.58304687 2.12484375 0 2 C0 1.34 0 0.68 0 0 Z " fill="#4F144C" transform="translate(416,66)"/>
<path d="M0 0 C0 0.33 0 0.66 0 1 C-3.63 1 -7.26 1 -11 1 C-11 1.66 -11 2.32 -11 3 C-11.85722656 3.19335938 -12.71445312 3.38671875 -13.59765625 3.5859375 C-19.44653174 4.91792493 -25.25718743 6.26380085 -31 8 C-29.16405054 4.32810107 -24.68792066 3.39512037 -21 2 C-14.05122991 -0.24556305 -7.24842983 -0.22076436 0 0 Z " fill="#8B4F44" transform="translate(424,49)"/>
<path d="M0 0 C16.29704207 -0.62591769 16.29704207 -0.62591769 23 3 C23.33 3.66 23.66 4.32 24 5 C20.76536863 4.52663931 17.84738886 3.94717307 14.75 2.875 C8.47688132 1.41127231 2.22718723 2.54698965 -4 4 C-4.33 3.34 -4.66 2.68 -5 2 C-3.35 2 -1.7 2 0 2 C0 1.34 0 0.68 0 0 Z " fill="#440F44" transform="translate(413,50)"/>
<path d="M0 0 C2.63886669 3.18483911 5.14494105 6.2898821 7 10 C6.67 10.99 6.34 11.98 6 13 C5.34 12.34 4.68 11.68 4 11 C2.03511169 10.11221308 2.03511169 10.11221308 -0.125 9.375 C-0.84945312 9.11460938 -1.57390625 8.85421875 -2.3203125 8.5859375 C-2.87460938 8.39257812 -3.42890625 8.19921875 -4 8 C-4 7.34 -4 6.68 -4 6 C-2.68 5.34 -1.36 4.68 0 4 C0 2.68 0 1.36 0 0 Z " fill="#5D254E" transform="translate(124,106)"/>
<path d="M0 0 C0.33 0.66 0.66 1.32 1 2 C2.65 1.34 4.3 0.68 6 0 C4.44499019 3.81684226 1.96404505 6.19195732 -1 9 C-0.34 10.65 0.32 12.3 1 14 C-1.475 13.01 -1.475 13.01 -4 12 C-4 10.35 -4 8.7 -4 7 C-3.34 7 -2.68 7 -2 7 C-1.855625 6.21625 -1.71125 5.4325 -1.5625 4.625 C-1 2 -1 2 0 0 Z " fill="#652E44" transform="translate(121,89)"/>
<path d="M0 0 C0.33 0 0.66 0 1 0 C1.45755719 7.62595318 -0.25463701 14.6029854 -2 22 C-2.66 22 -3.32 22 -4 22 C-4.20465296 16.7813494 -4.16128993 12.83111866 -2 8 C-1.6503582 5.66905466 -1.31445513 3.33595238 -1 1 C-0.67 0.67 -0.34 0.34 0 0 Z " fill="#632942" transform="translate(337,94)"/>
<path d="M0 0 C0.66 0 1.32 0 2 0 C2.19873043 6.72371297 2.265988 12.62690874 0 19 C0 19.33 0 19.66 0 20 C-1.65 20 -3.3 20 -5 20 C-4.72285156 19.47792969 -4.44570313 18.95585938 -4.16015625 18.41796875 C-1.14211722 12.28522751 -0.25417957 6.79930346 0 0 Z " fill="#622B40" transform="translate(423,76)"/>
<path d="M0 0 C0.66 0.33 1.32 0.66 2 1 C0.19489116 3.09012603 -1.0025331 4.00096499 -3.625 5 C-4.40875 5.33 -5.1925 5.66 -6 6 C-6.33 6.99 -6.66 7.98 -7 9 C-7.99 9.33 -8.98 9.66 -10 10 C-10.33 10.99 -10.66 11.98 -11 13 C-12.65 13 -14.3 13 -16 13 C-14.38405168 10.95880212 -12.7143618 8.95927063 -11 7 C-10.34 7 -9.68 7 -9 7 C-9 6.34 -9 5.68 -9 5 C-7.54735962 4.1361871 -6.0876837 3.28419546 -4.625 2.4375 C-3.81289062 1.96183594 -3.00078125 1.48617188 -2.1640625 0.99609375 C-1.44992188 0.66738281 -0.73578125 0.33867187 0 0 Z " fill="#5D2243" transform="translate(78,20)"/>
<path d="M0 0 C0.66 0 1.32 0 2 0 C2.50567729 2.56149628 3.00470132 5.12399465 3.5 7.6875 C3.64308594 8.40873047 3.78617188 9.12996094 3.93359375 9.87304688 C4.65571887 13.63841359 5.1824976 17.14473813 5 21 C1.12993567 17.62827272 0.6712799 13.93043515 0 9 C-0.1414291 5.97524209 -0.09621987 3.03092585 0 0 Z " fill="#783B33" transform="translate(240,91)"/>
<path d="M0 0 C2.31 0.33 4.62 0.66 7 1 C7.33 3.64 7.66 6.28 8 9 C7.01 9 6.02 9 5 9 C4.67 7.35 4.34 5.7 4 4 C2.68 4.99 1.36 5.98 0 7 C-0.66 6.67 -1.32 6.34 -2 6 C-1.34 4.02 -0.68 2.04 0 0 Z " fill="#6A313C" transform="translate(174,112)"/>
<path d="M0 0 C0.66 0 1.32 0 2 0 C2.23463338 5.74851769 1.87600693 10.48233255 0 16 C-0.33 16.99 -0.66 17.98 -1 19 C-1.66 19 -2.32 19 -3 19 C-2.68926976 16.77058595 -2.37634375 14.54147788 -2.0625 12.3125 C-1.88847656 11.07113281 -1.71445312 9.82976562 -1.53515625 8.55078125 C-1.10177103 5.67525452 -0.60350718 2.84355187 0 0 Z " fill="#5B2338" transform="translate(319,56)"/>
<path d="M0 0 C0.66 0 1.32 0 2 0 C2.33 0.66 2.66 1.32 3 2 C5.31 2 7.62 2 10 2 C10 5 10 5 8.6875 6.38671875 C7.125 7.59114583 5.5625 8.79557292 4 10 C3.32845067 8.71086513 2.66291141 7.41859796 2 6.125 C1.62875 5.40570313 1.2575 4.68640625 0.875 3.9453125 C0 2 0 2 0 0 Z " fill="#58224C" transform="translate(342,100)"/>
<path d="M0 0 C1.32 0 2.64 0 4 0 C2.57544351 3.70384688 0.19560275 5.90283071 -2.66015625 8.53515625 C-4.25108699 10.07501668 -4.25108699 10.07501668 -5 13 C-5.66 13 -6.32 13 -7 13 C-7 11.35 -7 9.7 -7 8 C-5.68 7.67 -4.36 7.34 -3 7 C-3 5.35 -3 3.7 -3 2 C-2.34 2 -1.68 2 -1 2 C-0.67 1.34 -0.34 0.68 0 0 Z " fill="#602945" transform="translate(367,74)"/>
<path d="M0 0 C0.33 0.99 0.66 1.98 1 3 C3.00016466 4.20882096 3.00016466 4.20882096 5 5 C5 5.66 5 6.32 5 7 C-0.42310905 6.56615128 -3.70144056 5.35497322 -8 2 C-8 1.67 -8 1.34 -8 1 C-2.25 -1.125 -2.25 -1.125 0 0 Z " fill="#6B3344" transform="translate(258,117)"/>
<path d="M0 0 C0.33 0 0.66 0 1 0 C1 23.375 1 23.375 -2 27 C-1.86057319 23.43721911 -1.71232922 19.8748574 -1.5625 16.3125 C-1.52318359 15.30509766 -1.48386719 14.29769531 -1.44335938 13.25976562 C-1.40146484 12.28330078 -1.35957031 11.30683594 -1.31640625 10.30078125 C-1.27974854 9.40528564 -1.24309082 8.50979004 -1.20532227 7.5871582 C-0.99938249 4.99221912 -0.56232178 2.53945316 0 0 Z " fill="#5C1F42" transform="translate(214,77)"/>
<path d="M0 0 C0.33 0 0.66 0 1 0 C1.0816082 2.37570543 1.14077222 4.74855841 1.1875 7.125 C1.21263672 7.79015625 1.23777344 8.4553125 1.26367188 9.140625 C1.33320714 13.86902292 0.40278375 16.95121479 -2 21 C-2.66 21 -3.32 21 -4 21 C-2.68 14.07 -1.36 7.14 0 0 Z " fill="#7C4531" transform="translate(186,74)"/>
<path d="M0 0 C0.80195801 0.48218994 0.80195801 0.48218994 1.62011719 0.97412109 C4.55018092 2.23716252 6.8913019 2.32033241 10.078125 2.4140625 C11.23828125 2.45273438 12.3984375 2.49140625 13.59375 2.53125 C14.8003125 2.5621875 16.006875 2.593125 17.25 2.625 C18.47203125 2.66367188 19.6940625 2.70234375 20.953125 2.7421875 C23.9685994 2.83642108 26.98406828 2.92203455 30 3 C30 3.33 30 3.66 30 4 C20.43 4 10.86 4 1 4 C0.67 2.68 0.34 1.36 0 0 Z " fill="#551C34" transform="translate(350,116)"/>
<path d="M0 0 C0.671875 1.671875 0.671875 1.671875 1 4 C-0.109375 6.578125 -0.109375 6.578125 -1.75 9.25 C-2.28109375 10.14203125 -2.8121875 11.0340625 -3.359375 11.953125 C-3.90078125 12.62859375 -4.4421875 13.3040625 -5 14 C-5.99 14 -6.98 14 -8 14 C-7.690625 13.4225 -7.38125 12.845 -7.0625 12.25 C-6.07416636 10.15705816 -5.4831387 8.25464725 -5 6 C-4.01 6 -3.02 6 -2 6 C-1.34 4.02 -0.68 2.04 0 0 Z " fill="#662D3E" transform="translate(309,96)"/>
<path d="M0 0 C0 0.33 0 0.66 0 1 C-2.68711024 1.19647038 -5.37428331 1.38239615 -8.0625 1.5625 C-8.81466797 1.61857422 -9.56683594 1.67464844 -10.34179688 1.73242188 C-15.07859502 2.04000617 -19.32542212 1.83807173 -24 1 C-24 0.67 -24 0.34 -24 0 C-6.6 -1.6 -6.6 -1.6 0 0 Z " fill="#693747" transform="translate(308,139)"/>
<path d="M0 0 C1 3 1 3 -0.125 6.125 C-2 9 -2 9 -4.6875 9.875 C-5.450625 9.91625 -6.21375 9.9575 -7 10 C-7.33 10.99 -7.66 11.98 -8 13 C-8.66 12.67 -9.32 12.34 -10 12 C-9.34 11.01 -8.68 10.02 -8 9 C-7.34 9 -6.68 9 -6 9 C-5.690625 8.38125 -5.38125 7.7625 -5.0625 7.125 C-4.375 5.75 -3.6875 4.375 -3 3 C-2.34 3 -1.68 3 -1 3 C-0.67 2.01 -0.34 1.02 0 0 Z " fill="#72373D" transform="translate(353,61)"/>
<path d="M0 0 C5.94 0 11.88 0 18 0 C17.67 2.64 17.34 5.28 17 8 C16.34 7.34 15.68 6.68 15 6 C15 4.68 15 3.36 15 2 C10.05 1.67 5.1 1.34 0 1 C0 0.67 0 0.34 0 0 Z " fill="#5C2736" transform="translate(199,51)"/>
<path d="M0 0 C0.33 0.99 0.66 1.98 1 3 C-0.73713218 5.17141522 -1.57096806 5.94072585 -4.375 6.328125 C-5.24125 6.30234375 -6.1075 6.2765625 -7 6.25 C-7.86625 6.23453125 -8.7325 6.2190625 -9.625 6.203125 C-12 6 -12 6 -15 5 C-14.67 4.01 -14.34 3.02 -14 2 C-13.34 2.33 -12.68 2.66 -12 3 C-5.91483944 3.23333287 -5.91483944 3.23333287 0 2 C0 1.34 0 0.68 0 0 Z " fill="#723C36" transform="translate(180,96)"/>
<path d="M0 0 C0.99 0.33 1.98 0.66 3 1 C3 1.66 3 2.32 3 3 C6.13498292 4.85776765 8.37471432 5.20140476 12 5 C12 6.32 12 7.64 12 9 C11.01 9.33 10.02 9.66 9 10 C6.9921875 8.671875 6.9921875 8.671875 4.875 6.75 C4.17117187 6.12609375 3.46734375 5.5021875 2.7421875 4.859375 C1 3 1 3 0 0 Z " fill="#71383E" transform="translate(138,111)"/>
<path d="M0 0 C3.65882521 3.3621637 6.14420341 6.36050852 8 11 C7.67 11.66 7.34 12.32 7 13 C6.67 11.68 6.34 10.36 6 9 C5.34 9 4.68 9 4 9 C4 8.34 4 7.68 4 7 C2.68 7 1.36 7 0 7 C0 4.69 0 2.38 0 0 Z " fill="#733A3C" transform="translate(130,26)"/>
<path d="M0 0 C0.93423645 3.01031744 1.04449911 3.86650268 0 7 C-0.1544533 11.17023918 0.01611229 14.94146318 1 19 C0.01 18.67 -0.98 18.34 -2 18 C-2.05397335 15.5622037 -2.09365616 13.12560315 -2.125 10.6875 C-2.14175781 9.99720703 -2.15851563 9.30691406 -2.17578125 8.59570312 C-2.21217794 4.82864604 -2.14378864 3.21568296 0 0 Z " fill="#663032" transform="translate(268,82)"/>
<path d="M0 0 C1.3271261 3.9813783 1.06915913 7.85045227 1 12 C-0.98 12.99 -0.98 12.99 -3 14 C-2.67 10.37 -2.34 6.74 -2 3 C-1.34 3 -0.68 3 0 3 C0 2.01 0 1.02 0 0 Z " fill="#622346" transform="translate(190,60)"/>
<path d="M0 0 C1.10844919 3.32534757 0.84454356 5.62182575 0 9 C-1.98 9.33 -3.96 9.66 -6 10 C-4.34832443 6.4213696 -2.21713508 3.25179812 0 0 Z " fill="#6B3445" transform="translate(385,62)"/>
<path d="M0 0 C0.33 0.66 0.66 1.32 1 2 C-1.45454545 7.72727273 -1.45454545 7.72727273 -4 9 C-4 9.66 -4 10.32 -4 11 C-5.65 11 -7.3 11 -9 11 C-7.7260411 8.96166576 -6.38938077 6.96147874 -5 5 C-4.34 5 -3.68 5 -3 5 C-3 4.34 -3 3.68 -3 3 C-2.34 3 -1.68 3 -1 3 C-0.67 2.01 -0.34 1.02 0 0 Z " fill="#6C3142" transform="translate(363,50)"/>
<path d="M0 0 C1.98 0 3.96 0 6 0 C6 0.66 6 1.32 6 2 C8.97 2.33 11.94 2.66 15 3 C14.67 3.66 14.34 4.32 14 5 C8.58609132 4.53328373 4.79482068 3.75702189 0 1 C0 0.67 0 0.34 0 0 Z " fill="#69283C" transform="translate(67,101)"/>
<path d="M0 0 C0.33 0.66 0.66 1.32 1 2 C0.0625 4.125 0.0625 4.125 -1 6 C-1.33 5.34 -1.66 4.68 -2 4 C-5.3 4 -8.6 4 -12 4 C-12.33 3.01 -12.66 2.02 -13 1 C-11.3745692 1.14095064 -9.74965949 1.28792087 -8.125 1.4375 C-7.22007812 1.51871094 -6.31515625 1.59992188 -5.3828125 1.68359375 C-3 2 -3 2 -1 3 C-0.67 2.01 -0.34 1.02 0 0 Z " fill="#5C214A" transform="translate(282,100)"/>
<path d="M0 0 C0.66 0.66 1.32 1.32 2 2 C1.81864449 4.76713403 1.5356614 7.3919776 1.125 10.125 C1.02058594 10.87910156 0.91617188 11.63320312 0.80859375 12.41015625 C0.54895402 14.27484156 0.27574971 16.13762887 0 18 C-0.33 18 -0.66 18 -1 18 C-1.02698422 15.56242587 -1.04683099 13.12515085 -1.0625 10.6875 C-1.07087891 9.99720703 -1.07925781 9.30691406 -1.08789062 8.59570312 C-1.10307906 5.4516975 -1.00193327 3.00579981 0 0 Z " fill="#673046" transform="translate(238,77)"/>
<path d="M0 0 C5.26170694 1.41167747 8.72171358 3.74850232 13 7 C10 8 10 8 7 7 C6 6 5 5 4 4 C1.90010348 2.82425289 1.90010348 2.82425289 0 2 C0 1.34 0 0.68 0 0 Z " fill="#753C38" transform="translate(117,18)"/>
<path d="M0 0 C1.75152066 2.62728098 3.37608885 5.29348141 5 8 C5.99 9.485 5.99 9.485 7 11 C4.03 10.505 4.03 10.505 1 10 C1 9.34 1 8.68 1 8 C0.34 8 -0.32 8 -1 8 C-0.67 5.36 -0.34 2.72 0 0 Z " fill="#6C353D" transform="translate(75,70)"/>
<path d="M0 0 C2 0 4 0 6 0 C5.75 2.375 5.75 2.375 5 5 C3.0625 6.375 3.0625 6.375 1 7 C0.34 6.67 -0.32 6.34 -1 6 C-0.67 4.02 -0.34 2.04 0 0 Z " fill="#652D5B" transform="translate(113,62)"/>
<path d="M0 0 C0.33 0 0.66 0 1 0 C0.85816304 1.75032844 0.71136571 3.50025534 0.5625 5.25 C0.48128906 6.22453125 0.40007812 7.1990625 0.31640625 8.203125 C0.04925416 10.56461753 -0.35371968 12.71901065 -1 15 C-2.32 14.67 -3.64 14.34 -5 14 C-4.34 14 -3.68 14 -3 14 C-3 12.02 -3 10.04 -3 8 C-2.34 8 -1.68 8 -1 8 C-0.67 5.36 -0.34 2.72 0 0 Z " fill="#7C4338" transform="translate(206,106)"/>
<path d="M0 0 C4.99275057 1.27721526 7.57611908 3.17330957 11 7 C5.25 6.125 5.25 6.125 3 5 C3 4.01 3 3.02 3 2 C2.01 2 1.02 2 0 2 C0 1.34 0 0.68 0 0 Z " fill="#723439" transform="translate(296,54)"/>
<path d="M0 0 C4.55737263 0.43820891 7.57653445 0.85041169 11 4 C10.67 5.98 10.34 7.96 10 10 C8 7 8 7 7.25 4.375 C6.8375 3.59125 6.425 2.8075 6 2 C2.94727535 1.10169161 2.94727535 1.10169161 0 1 C0 0.67 0 0.34 0 0 Z " fill="#794141" transform="translate(104,40)"/>
<path d="M0 0 C5.45769811 -0.11138159 10.61509359 0.08342019 16 1 C16 1.33 16 1.66 16 2 C10.31302429 2.91397824 5.68697571 2.91397824 0 2 C0 1.34 0 0.68 0 0 Z " fill="#4A0D35" transform="translate(275,139)"/>
<path d="M0 0 C2.54344286 2.27301934 3.87616437 4.45086481 5.25 7.5625 C5.60578125 8.34753906 5.9615625 9.13257812 6.328125 9.94140625 C7 12 7 12 6 14 C2.84345952 9.41078616 0.42797202 5.70629354 0 0 Z " fill="#7F402E" transform="translate(51,80)"/>
<path d="M0 0 C2 3 2 3 1.625 5.6875 C1.41875 6.450625 1.2125 7.21375 1 8 C1.99 8.33 2.98 8.66 4 9 C2.02 9.99 2.02 9.99 0 11 C-1.125 9.4375 -1.125 9.4375 -2 7 C-1.125 3.25 -1.125 3.25 0 0 Z " fill="#571D49" transform="translate(341,66)"/>
<path d="M0 0 C-0.66 1.32 -1.32 2.64 -2 4 C-4.97 4 -7.94 4 -11 4 C-7.41252042 0.41252042 -5.01650331 -1.67216777 0 0 Z " fill="#764235" transform="translate(273,54)"/>
<path d="M0 0 C0.66 1.32 1.32 2.64 2 4 C1.38125 4.226875 0.7625 4.45375 0.125 4.6875 C-2.63318783 6.3910866 -2.94965851 7.99902431 -4 11 C-4.66 11.66 -5.32 12.32 -6 13 C-5.75 10.125 -5.75 10.125 -5 7 C-3.68352881 6.30062468 -2.34977849 5.63270867 -1 5 C-0.18828772 2.44480079 -0.18828772 2.44480079 0 0 Z " fill="#702B3E" transform="translate(84,40)"/>
<path d="M0 0 C0.98484375 0.10183594 1.9696875 0.20367187 2.984375 0.30859375 C4.10585937 0.43427734 4.10585937 0.43427734 5.25 0.5625 C5.25 0.8925 5.25 1.2225 5.25 1.5625 C-0.03 2.2225 -5.31 2.8825 -10.75 3.5625 C-10.42 2.5725 -10.09 1.5825 -9.75 0.5625 C-6.49454896 -0.80389344 -3.44767963 -0.36939425 0 0 Z " fill="#7F463F" transform="translate(98.75,38.4375)"/>
<path d="M0 0 C2.7972908 2.06756277 3.02692273 3.14440371 3.6875 6.6875 C3.790625 7.780625 3.89375 8.87375 4 10 C3.34 10 2.68 10 2 10 C0.61061923 8.03852126 -0.7260411 6.03833424 -2 4 C-1.34 2.68 -0.68 1.36 0 0 Z " fill="#753D43" transform="translate(153,142)"/>
<path d="M0 0 C0.66 0 1.32 0 2 0 C2 1.98 2 3.96 2 6 C-2.62 6 -7.24 6 -12 6 C-12 5.67 -12 5.34 -12 5 C-6.555 4.505 -6.555 4.505 -1 4 C-0.67 2.68 -0.34 1.36 0 0 Z " fill="#652D1A" transform="translate(312,75)"/>
<path d="M0 0 C1.65 0 3.3 0 5 0 C4.60196439 2.88575819 4.20990931 3.82189513 1.9375 5.75 C1.298125 6.1625 0.65875 6.575 0 7 C0 4.69 0 2.38 0 0 Z " fill="#602849" transform="translate(387,51)"/>
<path d="M0 0 C2.9244745 2.63202705 5.02154932 5.60837026 7 9 C6.67 9.99 6.34 10.98 6 12 C2.44992282 8.0949151 1.18180084 5.02265357 0 0 Z " fill="#764034" transform="translate(362,87)"/>
<path d="M0 0 C0 0.66 0 1.32 0 2 C-0.99 2 -1.98 2 -3 2 C-3.33 3.65 -3.66 5.3 -4 7 C-5.65 7.33 -7.3 7.66 -9 8 C-4.67567568 0 -4.67567568 0 0 0 Z " fill="#7D3C3F" transform="translate(231,20)"/>
<path d="M0 0 C0.33 0 0.66 0 1 0 C1.28571429 7.42857143 1.28571429 7.42857143 -1 11 C-1.66 11 -2.32 11 -3 11 C-2.69078116 9.54096742 -2.37751201 8.08279278 -2.0625 6.625 C-1.88847656 5.81289062 -1.71445312 5.00078125 -1.53515625 4.1640625 C-1 2 -1 2 0 0 Z " fill="#7A413A" transform="translate(378,72)"/>
<path d="M0 0 C0.6875 1.625 0.6875 1.625 1 4 C-0.4375 7.25 -0.4375 7.25 -2 10 C-3.32 9.34 -4.64 8.68 -6 8 C-4.73046875 6.50260417 -3.4609375 5.00520833 -2.19140625 3.5078125 C-0.9121848 1.99405921 -0.9121848 1.99405921 0 0 Z " fill="#753942" transform="translate(111,69)"/>
<path d="M0 0 C5.19591612 0.44033187 8.66335081 0.88303339 13 4 C10 5 10 5 8.1875 4.125 C7.465625 3.75375 6.74375 3.3825 6 3 C4.00889599 2.61709538 2.00899487 2.27395385 0 2 C0 1.34 0 0.68 0 0 Z " fill="#6D3330" transform="translate(424,50)"/>
<path d="M0 0 C1.32 0.33 2.64 0.66 4 1 C2.85981998 4.42054006 2.07541482 5.2426201 -1 7 C-3.25 6.6875 -3.25 6.6875 -5 6 C-4.01 6 -3.02 6 -2 6 C-2 5.01 -2 4.02 -2 3 C-1.34 2.67 -0.68 2.34 0 2 C0 1.34 0 0.68 0 0 Z " fill="#683340" transform="translate(244,37)"/>
<path d="M0 0 C0.66 0.33 1.32 0.66 2 1 C-0.2008849 3.47859908 -2.06372969 4.61210366 -5.1875 5.6875 C-6.26064453 6.06455078 -6.26064453 6.06455078 -7.35546875 6.44921875 C-7.89816406 6.63097656 -8.44085938 6.81273437 -9 7 C-9 6.34 -9 5.68 -9 5 C-7.54735962 4.1361871 -6.0876837 3.28419546 -4.625 2.4375 C-3.40683594 1.72400391 -3.40683594 1.72400391 -2.1640625 0.99609375 C-1.44992188 0.66738281 -0.73578125 0.33867187 0 0 Z " fill="#784331" transform="translate(78,20)"/>
<path d="M0 0 C0.99 0 1.98 0 3 0 C3 1.65 3 3.3 3 5 C1.35 5.66 -0.3 6.32 -2 7 C-1.34 4.69 -0.68 2.38 0 0 Z " fill="#6F344E" transform="translate(174,112)"/>
<path d="M0 0 C0.33 0.99 0.66 1.98 1 3 C0 4 0 4 -2.94140625 4.09765625 C-4.73384766 4.08025391 -4.73384766 4.08025391 -6.5625 4.0625 C-8.35880859 4.04896484 -8.35880859 4.04896484 -10.19140625 4.03515625 C-11.11824219 4.02355469 -12.04507812 4.01195313 -13 4 C-12.67 3.34 -12.34 2.68 -12 2 C-11.07767578 2.03480469 -11.07767578 2.03480469 -10.13671875 2.0703125 C-8.92435547 2.09738281 -8.92435547 2.09738281 -7.6875 2.125 C-6.48673828 2.15980469 -6.48673828 2.15980469 -5.26171875 2.1953125 C-2.71611424 2.15817322 -2.71611424 2.15817322 0 0 Z " fill="#A9723D" transform="translate(417,96)"/>
<path d="M0 0 C2.30143236 3.45214853 2.13833854 4.23479324 1.625 8.1875 C1.51414063 9.08855469 1.40328125 9.98960938 1.2890625 10.91796875 C1.19367188 11.60503906 1.09828125 12.29210937 1 13 C-0.9078584 9.8250906 -1.1609041 7.89414789 -0.625 4.25 C-0.51414063 3.45078125 -0.40328125 2.6515625 -0.2890625 1.828125 C-0.19367188 1.22484375 -0.09828125 0.6215625 0 0 Z " fill="#75423C" transform="translate(207,92)"/>
<path d="M0 0 C0.33 0 0.66 0 1 0 C1.16788373 1.62487471 1.33426787 3.24990442 1.5 4.875 C1.5928125 5.77992187 1.685625 6.68484375 1.78125 7.6171875 C2 10 2 10 2 12 C1.01 12 0.02 12 -1 12 C-0.67 8.04 -0.34 4.08 0 0 Z " fill="#713537" transform="translate(315,75)"/>
<path d="M0 0 C2.33944736 0.28730055 4.6739143 0.61936779 7 1 C6.01 1.33 5.02 1.66 4 2 C4 2.66 4 3.32 4 4 C3.34 4 2.68 4 2 4 C1.67 4.99 1.34 5.98 1 7 C0.67 6.34 0.34 5.68 0 5 C0.33 4.01 0.66 3.02 1 2 C0.34 1.67 -0.32 1.34 -1 1 C-0.67 0.67 -0.34 0.34 0 0 Z " fill="#713748" transform="translate(403,72)"/>
<path d="M0 0 C1.65 0 3.3 0 5 0 C4.67 0.99 4.34 1.98 4 3 C3.34 3 2.68 3 2 3 C2 3.66 2 4.32 2 5 C1.34 5 0.68 5 0 5 C-0.33 5.66 -0.66 6.32 -1 7 C-1.125 2.25 -1.125 2.25 0 0 Z " fill="#6A373A" transform="translate(379,61)"/>
<path d="M0 0 C0.33 0.99 0.66 1.98 1 3 C-0.8125 6.1875 -0.8125 6.1875 -3 9 C-3.66 9 -4.32 9 -5 9 C-3.7508258 5.54074837 -2.32472205 2.85306797 0 0 Z " fill="#835429" transform="translate(61,33)"/>
<path d="M0 0 C2.74277578 3.19990508 4.6302836 6.00499382 6 10 C4.68 9.34 3.36 8.68 2 8 C2 6.68 2 5.36 2 4 C1.34 4 0.68 4 0 4 C0 2.68 0 1.36 0 0 Z " fill="#7A4438" transform="translate(369,98)"/>
<path d="M0 0 C0.33 0.99 0.66 1.98 1 3 C1.66 3 2.32 3 3 3 C3.33 5.64 3.66 8.28 4 11 C1.9656541 9.58480285 1.09589607 8.45017877 0.578125 6.01953125 C0.33726048 4.01823046 0.16467259 2.0090056 0 0 Z " fill="#80453B" transform="translate(241,101)"/>
<path d="M0 0 C3 1 3 1 4.25 3.375 C5 6 5 6 4 9 C0 3.375 0 3.375 0 0 Z " fill="#7B3F3C" transform="translate(376,103)"/>
<path d="M0 0 C0.33 0 0.66 0 1 0 C1 3.3 1 6.6 1 10 C0.01 9.34 -0.98 8.68 -2 8 C-2.47730962 4.27698497 -2.1387261 3.20808915 0 0 Z " fill="#653041" transform="translate(165,65)"/>
<path d="M0 0 C4.14133583 0.39069206 7.35443121 1.02833476 11 3 C9.5629191 3.05422947 8.12524538 3.09289723 6.6875 3.125 C5.88699219 3.14820313 5.08648437 3.17140625 4.26171875 3.1953125 C2 3 2 3 -1 1 C-0.67 0.67 -0.34 0.34 0 0 Z " fill="#420E39" transform="translate(301,136)"/>
<path d="M0 0 C0.66 0.33 1.32 0.66 2 1 C0.25 6.75 0.25 6.75 -2 9 C-2 6.69 -2 4.38 -2 2 C-1.34 2 -0.68 2 0 2 C0 1.34 0 0.68 0 0 Z " fill="#693341" transform="translate(134,74)"/>
<path d="M0 0 C0.99 0 1.98 0 3 0 C3.33 2.97 3.66 5.94 4 9 C1.49701566 6.06171403 0.53069061 3.82097239 0 0 Z " fill="#6A3439" transform="translate(97,109)"/>
<path d="M0 0 C0.33 0 0.66 0 1 0 C1.33 3.63 1.66 7.26 2 11 C1.01 11 0.02 11 -1 11 C-0.67 7.37 -0.34 3.74 0 0 Z " fill="#71383B" transform="translate(313,87)"/>
<path d="M0 0 C-3.50538557 1.96301592 -7.13351728 2.95902388 -11 4 C-8.94006922 -0.11986157 -4.11800376 -1.37266792 0 0 Z " fill="#714031" transform="translate(404,53)"/>
<path d="M0 0 C1.32 0 2.64 0 4 0 C3.34 3.3 2.68 6.6 2 10 C1.67 10 1.34 10 1 10 C0.67 6.7 0.34 3.4 0 0 Z " fill="#753946" transform="translate(74,53)"/>
<path d="M0 0 C1.98 0.99 1.98 0.99 4 2 C4 3.32 4 4.64 4 6 C2.68 6 1.36 6 0 6 C0 4.02 0 2.04 0 0 Z " fill="#46124C" transform="translate(312,98)"/>
<path d="M0 0 C0.66 0 1.32 0 2 0 C1.67 2.97 1.34 5.94 1 9 C-1.08954032 4.82091936 -1.16552619 4.19589427 0 0 Z " fill="#7E3E3F" transform="translate(213,61)"/>
<path d="M0 0 C0.99 0.33 1.98 0.66 3 1 C2.67 1.99 2.34 2.98 2 4 C1.34 4 0.68 4 0 4 C0 4.99 0 5.98 0 7 C-0.99 6.67 -1.98 6.34 -3 6 C-2.01 4.02 -1.02 2.04 0 0 Z " fill="#4C1159" transform="translate(62,33)"/>
</svg>
